<svg width="50" height="45" viewBox="0 0 50 45" fill="none" xmlns="http://www.w3.org/2000/svg">
<mask id="mask0_293_627" style="mask-type:luminance" maskUnits="userSpaceOnUse" x="0" y="0" width="50" height="39">
<path d="M0 0H50V38.358H0V0Z" fill="white"/>
</mask>
<g mask="url(#mask0_293_627)">
<path d="M36.667 31.5499H11.0798C10.6748 31.5512 10.2725 31.5187 9.87272 31.4526C9.47298 31.3851 9.08105 31.2865 8.69824 31.1542C8.31543 31.0206 7.94694 30.8571 7.59147 30.6625C7.236 30.4679 6.90007 30.2448 6.58366 29.9931C6.26595 29.7414 5.97168 29.4664 5.70215 29.1655C5.43132 28.8645 5.18913 28.5428 4.97298 28.2003C4.75684 27.8591 4.57194 27.501 4.41699 27.1274C4.26204 26.7551 4.13965 26.3711 4.0498 25.9767L0.0419922 8.67621C0.0133462 8.55427 -0.000976562 8.43102 -0.000976562 8.30649C-0.000976562 8.18065 0.0133461 8.05741 0.0406901 7.93546C0.0680338 7.81352 0.109701 7.69676 0.163086 7.5839C0.217774 7.47104 0.284179 7.36596 0.362305 7.26866C0.440429 7.17137 0.527669 7.08315 0.626628 7.00531C0.724284 6.92748 0.829753 6.86132 0.943034 6.80683C1.05501 6.75234 1.1735 6.71083 1.2959 6.68359C1.41829 6.65635 1.54199 6.64208 1.66699 6.64208H40.4456L41.71 1.28042C41.7529 1.0975 41.8258 0.927556 41.9261 0.769287C42.0264 0.612316 42.1514 0.474805 42.2985 0.358049C42.4456 0.242592 42.6084 0.153079 42.7855 0.0921069C42.9626 0.0311346 43.1462 0 43.3337 0H48.3337C48.443 0 48.5511 0.0103783 48.6592 0.032432C48.766 0.0531885 48.8701 0.0843232 48.9717 0.125836C49.0719 0.168646 49.1683 0.21924 49.2594 0.280213C49.3506 0.339888 49.4352 0.408643 49.512 0.48648C49.5902 0.563019 49.6592 0.647343 49.7191 0.738153C49.7803 0.828962 49.8311 0.924961 49.874 1.02485C49.9157 1.12604 49.9469 1.22982 49.9678 1.3362C49.9899 1.44387 50.0003 1.55155 50.0003 1.66052C50.0003 1.76949 49.9899 1.87716 49.9678 1.98484C49.9469 2.09122 49.9157 2.195 49.874 2.29619C49.8311 2.39608 49.7803 2.49208 49.7191 2.58289C49.6592 2.67369 49.5902 2.75802 49.512 2.83456C49.4352 2.91239 49.3506 2.98115 49.2594 3.04083C49.1683 3.1018 49.0719 3.15239 48.9717 3.1952C48.8701 3.23671 48.766 3.26785 48.6592 3.28861C48.5511 3.31066 48.443 3.32104 48.3337 3.32104H44.654L38.667 28.6543C38.9274 28.7685 39.1748 28.9034 39.4118 29.0604C39.6488 29.2173 39.8701 29.3925 40.0771 29.5871C40.2842 29.7817 40.473 29.9918 40.6436 30.2176C40.8141 30.4446 40.9639 30.6833 41.0941 30.9349C41.2243 31.1866 41.3311 31.4474 41.4157 31.7172C41.5016 31.9883 41.5628 32.2634 41.6006 32.5436C41.6396 32.8238 41.6527 33.1066 41.6423 33.3894C41.6331 33.6722 41.598 33.9524 41.5407 34.2287C41.4821 34.5064 41.4014 34.7762 41.2972 35.0395C41.1917 35.3029 41.0667 35.5559 40.9183 35.7972C40.7712 36.0397 40.6045 36.2668 40.417 36.4808C40.2308 36.6949 40.0277 36.8908 39.8076 37.0698C39.5876 37.2488 39.3532 37.4084 39.1058 37.5472C38.8584 37.686 38.6019 37.804 38.3337 37.9C38.0667 37.9947 37.7933 38.0674 37.5133 38.1167C37.2334 38.166 36.9508 38.1906 36.667 38.1919H5.00033C4.89095 38.1919 4.78288 38.1816 4.6748 38.1595C4.56803 38.1387 4.46387 38.1076 4.3623 38.0661C4.26204 38.0233 4.16569 37.9727 4.07454 37.9117C3.9834 37.852 3.89876 37.7833 3.82194 37.7055C3.74382 37.6289 3.6748 37.5446 3.61491 37.4538C3.55371 37.363 3.50293 37.267 3.45996 37.1671C3.41829 37.0659 3.38704 36.9621 3.36621 36.8557C3.34408 36.7481 3.33366 36.6404 3.33366 36.5314C3.33366 36.4224 3.34408 36.3148 3.36621 36.2071C3.38704 36.1007 3.41829 35.9969 3.45996 35.8957C3.50293 35.7959 3.55371 35.6999 3.61491 35.609C3.6748 35.5182 3.74382 35.4339 3.82194 35.3574C3.89876 35.2795 3.9834 35.2108 4.07454 35.1511C4.16569 35.0901 4.26204 35.0395 4.3623 34.9967C4.46387 34.9552 4.56803 34.9241 4.6748 34.9033C4.78288 34.8813 4.89095 34.8709 5.00033 34.8709H36.667C36.7764 34.8709 36.8844 34.8605 36.9925 34.8385C37.0993 34.8177 37.2035 34.7866 37.305 34.7451C37.4053 34.7022 37.5016 34.6517 37.5928 34.5907C37.6839 34.531 37.7686 34.4622 37.8454 34.3844C37.9235 34.3079 37.9925 34.2236 38.0524 34.1327C38.1136 34.0419 38.1644 33.9459 38.2074 33.846C38.249 33.7449 38.2803 33.6411 38.3011 33.5347C38.3232 33.427 38.3337 33.3193 38.3337 33.2104C38.3337 33.1014 38.3232 32.9937 38.3011 32.8861C38.2803 32.7797 38.249 32.6759 38.2074 32.5747C38.1644 32.4748 38.1136 32.3788 38.0524 32.288C37.9925 32.1972 37.9235 32.1129 37.8454 32.0363C37.7686 31.9585 37.6839 31.8897 37.5928 31.8301C37.5016 31.7691 37.4053 31.7185 37.305 31.6757C37.2035 31.6342 37.0993 31.603 36.9925 31.5823C36.8844 31.5602 36.7764 31.5499 36.667 31.5499ZM3.76204 9.96311L7.2985 25.2295C7.34668 25.4423 7.41178 25.6485 7.49512 25.8496C7.57845 26.0507 7.67871 26.2427 7.7946 26.4269C7.91048 26.6111 8.04069 26.7836 8.18652 26.9458C8.33105 27.108 8.48991 27.2559 8.66048 27.3921C8.83105 27.527 9.01204 27.6476 9.20345 27.7514C9.39355 27.8565 9.59277 27.9447 9.7985 28.0161C10.0042 28.0874 10.2152 28.1406 10.43 28.1769C10.6462 28.212 10.8623 28.2301 11.0798 28.2288H35.3467L39.667 9.96311H3.76204Z" fill="#495E57"/>
</g>
<mask id="mask1_293_627" style="mask-type:luminance" maskUnits="userSpaceOnUse" x="26" y="34" width="11" height="11">
<path d="M26.25 34.8701H36.5833V44.9993H26.25V34.8701Z" fill="white"/>
</mask>
<g mask="url(#mask1_293_627)">
<path d="M31.416 35.0361C31.7441 35.0361 32.0697 35.0686 32.3913 35.1321C32.7129 35.1957 33.0267 35.2904 33.3301 35.4149C33.6322 35.5408 33.9212 35.6939 34.1934 35.8755C34.4668 36.0571 34.7194 36.2634 34.9512 36.4956C35.1842 36.7265 35.3913 36.9782 35.5736 37.2506C35.7559 37.5217 35.9095 37.8097 36.0358 38.1107C36.1608 38.413 36.2559 38.7256 36.3197 39.046C36.3835 39.3665 36.416 39.6908 36.416 40.0177C36.416 40.3446 36.3835 40.6689 36.3197 40.9894C36.2559 41.3098 36.1608 41.6224 36.0358 41.9234C35.9095 42.2257 35.7559 42.5137 35.5736 42.7848C35.3913 43.0572 35.1842 43.3089 34.9512 43.5398C34.7194 43.772 34.4668 43.9783 34.1934 44.1599C33.9212 44.3415 33.6322 44.4946 33.3301 44.6204C33.0267 44.745 32.7129 44.8397 32.3913 44.9032C32.0697 44.9668 31.7441 44.9992 31.416 44.9992C31.0879 44.9992 30.7624 44.9668 30.4408 44.9032C30.1191 44.8397 29.8053 44.745 29.502 44.6204C29.1999 44.4946 28.9108 44.3415 28.6387 44.1599C28.3652 43.9783 28.1126 43.772 27.8809 43.5398C27.6478 43.3089 27.4408 43.0572 27.2585 42.7848C27.0762 42.5137 26.9225 42.2257 26.7962 41.9234C26.6712 41.6224 26.5762 41.3098 26.5124 40.9894C26.4486 40.6689 26.416 40.3446 26.416 40.0177C26.416 39.6908 26.4486 39.3665 26.5124 39.046C26.5762 38.7256 26.6712 38.413 26.7962 38.1107C26.9225 37.8097 27.0762 37.5217 27.2585 37.2506C27.4408 36.9782 27.6478 36.7265 27.8809 36.4956C28.1126 36.2634 28.3652 36.0571 28.6387 35.8755C28.9108 35.6939 29.1999 35.5408 29.502 35.4149C29.8053 35.2904 30.1191 35.1957 30.4408 35.1321C30.7624 35.0686 31.0879 35.0361 31.416 35.0361ZM31.416 41.6782C31.5254 41.6782 31.6335 41.6678 31.7415 41.6458C31.8483 41.625 31.9525 41.5939 32.054 41.5524C32.1543 41.5096 32.2507 41.459 32.3418 41.398C32.4329 41.3383 32.5176 41.2696 32.5944 41.1917C32.6725 41.1152 32.7415 41.0309 32.8014 40.9401C32.8626 40.8492 32.9134 40.7532 32.9564 40.6534C32.998 40.5522 33.0293 40.4484 33.0501 40.342C33.0723 40.2343 33.0827 40.1267 33.0827 40.0177C33.0827 39.9087 33.0723 39.801 33.0501 39.6934C33.0293 39.587 32.998 39.4832 32.9564 39.382C32.9134 39.2821 32.8626 39.1861 32.8014 39.0953C32.7415 39.0045 32.6725 38.9202 32.5944 38.8437C32.5176 38.7658 32.4329 38.6971 32.3418 38.6374C32.2507 38.5764 32.1543 38.5258 32.054 38.483C31.9525 38.4415 31.8483 38.4104 31.7415 38.3896C31.6335 38.3675 31.5254 38.3572 31.416 38.3572C31.3066 38.3572 31.1986 38.3675 31.0905 38.3896C30.9837 38.4104 30.8796 38.4415 30.778 38.483C30.6777 38.5258 30.5814 38.5764 30.4902 38.6374C30.3991 38.6971 30.3145 38.7658 30.2376 38.8437C30.1595 38.9202 30.0905 39.0045 30.0306 39.0953C29.9694 39.1861 29.9186 39.2821 29.8757 39.382C29.834 39.4832 29.8027 39.587 29.7819 39.6934C29.7598 39.801 29.7493 39.9087 29.7493 40.0177C29.7493 40.1267 29.7598 40.2343 29.7819 40.342C29.8027 40.4484 29.834 40.5522 29.8757 40.6534C29.9186 40.7532 29.9694 40.8492 30.0306 40.9401C30.0905 41.0309 30.1595 41.1152 30.2376 41.1917C30.3145 41.2696 30.3991 41.3383 30.4902 41.398C30.5814 41.459 30.6777 41.5096 30.778 41.5524C30.8796 41.5939 30.9837 41.625 31.0905 41.6458C31.1986 41.6678 31.3066 41.6782 31.416 41.6782Z" fill="#495E57"/>
</g>
<mask id="mask2_293_627" style="mask-type:luminance" maskUnits="userSpaceOnUse" x="7" y="34" width="11" height="11">
<path d="M7.5 34.8701H17.8333V44.9993H7.5V34.8701Z" fill="white"/>
</mask>
<g mask="url(#mask2_293_627)">
<path d="M12.666 35.0361C12.9941 35.0361 13.3197 35.0686 13.6413 35.1321C13.9629 35.1957 14.2767 35.2904 14.5801 35.4149C14.8822 35.5408 15.1712 35.6939 15.4434 35.8755C15.7168 36.0571 15.9694 36.2634 16.2012 36.4956C16.4342 36.7265 16.6413 36.9782 16.8236 37.2506C17.0059 37.5217 17.1595 37.8097 17.2858 38.1107C17.4108 38.413 17.5059 38.7256 17.5697 39.046C17.6335 39.3665 17.666 39.6908 17.666 40.0177C17.666 40.3446 17.6335 40.6689 17.5697 40.9894C17.5059 41.3098 17.4108 41.6224 17.2858 41.9234C17.1595 42.2257 17.0059 42.5137 16.8236 42.7848C16.6413 43.0572 16.4342 43.3089 16.2012 43.5398C15.9694 43.772 15.7168 43.9783 15.4434 44.1599C15.1712 44.3415 14.8822 44.4946 14.5801 44.6204C14.2767 44.745 13.9629 44.8397 13.6413 44.9032C13.3197 44.9668 12.9941 44.9992 12.666 44.9992C12.3379 44.9992 12.0124 44.9668 11.6908 44.9032C11.3691 44.8397 11.0553 44.745 10.7533 44.6204C10.4499 44.4946 10.1608 44.3415 9.88867 44.1599C9.61523 43.9783 9.36263 43.772 9.13086 43.5398C8.89779 43.3089 8.69076 43.0572 8.50846 42.7848C8.32617 42.5137 8.17253 42.2257 8.04622 41.9234C7.92122 41.6224 7.82617 41.3098 7.76237 40.9894C7.69857 40.6689 7.66602 40.3446 7.66602 40.0177C7.66602 39.6908 7.69857 39.3665 7.76237 39.046C7.82617 38.7256 7.92122 38.413 8.04622 38.1107C8.17253 37.8097 8.32617 37.5217 8.50846 37.2506C8.69076 36.9782 8.89779 36.7265 9.13086 36.4956C9.36263 36.2634 9.61523 36.0571 9.88867 35.8755C10.1608 35.6939 10.4499 35.5408 10.7533 35.4149C11.0553 35.2904 11.3691 35.1957 11.6908 35.1321C12.0124 35.0686 12.3379 35.0361 12.666 35.0361ZM12.666 41.6782C12.7754 41.6782 12.8835 41.6678 12.9915 41.6458C13.0983 41.625 13.2025 41.5939 13.304 41.5524C13.4043 41.5096 13.5007 41.459 13.5918 41.398C13.6829 41.3383 13.7676 41.2696 13.8444 41.1917C13.9225 41.1152 13.9915 41.0309 14.0514 40.9401C14.1126 40.8492 14.1634 40.7532 14.2064 40.6534C14.248 40.5522 14.2793 40.4484 14.3001 40.342C14.3223 40.2343 14.3327 40.1267 14.3327 40.0177C14.3327 39.9087 14.3223 39.801 14.3001 39.6934C14.2793 39.587 14.248 39.4832 14.2064 39.382C14.1634 39.2821 14.1126 39.1861 14.0514 39.0953C13.9915 39.0045 13.9225 38.9202 13.8444 38.8437C13.7676 38.7658 13.6829 38.6971 13.5918 38.6374C13.5007 38.5764 13.4043 38.5258 13.304 38.483C13.2025 38.4415 13.0983 38.4104 12.9915 38.3896C12.8835 38.3675 12.7754 38.3572 12.666 38.3572C12.5566 38.3572 12.4486 38.3675 12.3405 38.3896C12.2337 38.4104 12.1296 38.4415 12.028 38.483C11.9277 38.5258 11.8314 38.5764 11.7402 38.6374C11.6491 38.6971 11.5645 38.7658 11.4876 38.8437C11.4095 38.9202 11.3405 39.0045 11.2806 39.0953C11.2194 39.1861 11.1686 39.2821 11.1257 39.382C11.084 39.4832 11.0527 39.587 11.0319 39.6934C11.0098 39.801 10.9993 39.9087 10.9993 40.0177C10.9993 40.1267 11.0098 40.2343 11.0319 40.342C11.0527 40.4484 11.084 40.5522 11.1257 40.6534C11.1686 40.7532 11.2194 40.8492 11.2806 40.9401C11.3405 41.0309 11.4095 41.1152 11.4876 41.1917C11.5645 41.2696 11.6491 41.3383 11.7402 41.398C11.8314 41.459 11.9277 41.5096 12.028 41.5524C12.1296 41.5939 12.2337 41.625 12.3405 41.6458C12.4486 41.6678 12.5566 41.6782 12.666 41.6782Z" fill="#495E57"/>
</g>
</svg>
