<svg width="50" height="40" viewBox="0 0 50 40" fill="none" xmlns="http://www.w3.org/2000/svg">
<path d="M10.7143 40C10.4523 40 10.1877 39.9464 9.94135 39.8355C9.32091 39.5565 8.92857 38.9754 8.92857 38.3333V33.3333C5.84072 33.3333 0 31.5911 0 25V8.33333C0 5.452 1.86653 0 8.92857 0H41.0714C44.1593 0 50 1.7422 50 8.33333V25C50 27.8813 48.5076 33.3333 42.8571 33.3333H20.2698L11.83 39.6345C11.5068 39.8769 11.1131 40 10.7143 40ZM10.7143 30C11.6997 30 12.5 30.7444 12.5 31.6667V34.8648L18.5271 30.3655C18.8452 30.1279 19.2375 30 19.6429 30H42.8571C46.3556 30 46.4273 25.1986 46.4286 24.9951V8.33333C46.4286 3.62817 41.9578 3.34308 41.061 3.33333H8.92857C3.88686 3.33333 3.58186 7.50487 3.57143 8.34186V25C3.57143 29.7052 8.04093 29.9903 8.9377 30H10.7143ZM28.5714 16.6667C28.5714 14.8246 26.9734 13.3333 25 13.3333C23.0266 13.3333 21.4286 14.8246 21.4286 16.6667C21.4286 18.5088 23.0266 20 25 20C26.9734 20 28.5714 18.5088 28.5714 16.6667ZM17.8571 16.6667C17.8571 14.8246 16.2591 13.3333 14.2857 13.3333C12.3123 13.3333 10.7143 14.8246 10.7143 16.6667C10.7143 18.5088 12.3123 20 14.2857 20C16.2591 20 17.8571 18.5088 17.8571 16.6667ZM39.2857 16.6667C39.2857 14.8246 37.6877 13.3333 35.7143 13.3333C33.7409 13.3333 32.1429 14.8246 32.1429 16.6667C32.1429 18.5088 33.7409 20 35.7143 20C37.6877 20 39.2857 18.5088 39.2857 16.6667Z" fill="#495E57"/>
</svg>
