<svg  viewBox="0 0 40 38" fill="none" xmlns="http://www.w3.org/2000/svg">
<mask id="mask0_261_2256" style="mask-type:luminance" maskUnits="userSpaceOnUse" x="0" y="0" width="40" height="38">
<path d="M0 0.700195H40V37.3002H0V0.700195Z" fill="white"/>
</mask>
<g mask="url(#mask0_261_2256)">
<path d="M26.0698 0.696289H35.4823C36.725 0.696289 37.8541 1.20254 38.6708 2.02233C39.4885 2.84004 39.9968 3.97025 39.9968 5.21191V17.4234C39.9968 18.6671 39.4906 19.7952 38.6708 20.613C37.8541 21.4307 36.7229 21.939 35.4823 21.939H26.0698C24.826 21.939 23.6979 21.4307 22.8802 20.613C22.0625 19.7952 21.5541 18.6671 21.5541 17.4234V5.21191C21.5541 3.96816 22.0625 2.84004 22.8802 2.02233C23.6979 1.20462 24.826 0.696289 26.0698 0.696289ZM4.52393 11.0807H13.9364C14.6614 11.0807 15.3218 10.7827 15.8 10.3046C16.2781 9.82441 16.576 9.16608 16.576 8.44004V5.21191C16.576 4.48587 16.2781 3.8265 15.8 3.34837C15.3198 2.86816 14.6604 2.57129 13.9364 2.57129H4.52393C3.79788 2.57129 3.13851 2.87025 2.66038 3.34837C2.18018 3.82754 1.8833 4.48587 1.8833 5.21191V8.44004C1.8833 9.16608 2.18226 9.8265 2.66038 10.3046C3.13851 10.7827 3.79788 11.0807 4.52393 11.0807ZM13.9364 12.9557H4.52393C3.28018 12.9557 2.15205 12.4473 1.33434 11.6296C0.516634 10.8119 0.00830078 9.68171 0.00830078 8.44004V5.21191C0.00830078 3.96816 0.514551 2.84004 1.33434 2.02233C2.15205 1.20462 3.28226 0.696289 4.52393 0.696289H13.9364C15.1791 0.696289 16.3083 1.20462 17.126 2.02233C17.9427 2.84004 18.451 3.97025 18.451 5.21191V8.44004C18.451 9.68379 17.9427 10.8119 17.126 11.6296C16.3083 12.4473 15.177 12.9557 13.9364 12.9557ZM4.52393 35.4182H13.9364C14.6614 35.4182 15.3218 35.1202 15.8 34.6421C16.2802 34.164 16.576 33.5036 16.576 32.7775V20.5661C16.576 19.84 16.2802 19.1807 15.8 18.7025C15.3198 18.2223 14.6614 17.9265 13.9364 17.9265H4.52393C3.79788 17.9265 3.13851 18.2244 2.66038 18.7025C2.18018 19.1827 1.8833 19.84 1.8833 20.5661V32.7775C1.8833 33.5036 2.18226 34.164 2.66038 34.6421C3.13851 35.1213 3.79788 35.4182 4.52393 35.4182ZM13.9364 37.2932H4.52393C3.28018 37.2932 2.15205 36.7848 1.33434 35.9671C0.516634 35.1494 0.00830078 34.0192 0.00830078 32.7775V20.5661C0.00830078 19.3234 0.514551 18.1942 1.33434 17.3765C2.15205 16.5588 3.28226 16.0515 4.52393 16.0515H13.9364C15.1791 16.0515 16.3083 16.5588 17.126 17.3765C17.9427 18.1942 18.451 19.3234 18.451 20.5661V32.7775C18.451 34.0213 17.9427 35.1494 17.126 35.9671C16.3083 36.7848 15.1791 37.2932 13.9364 37.2932ZM26.0708 25.0338H35.4833C36.727 25.0338 37.8552 25.5421 38.6729 26.3598C39.4906 27.1775 39.9989 28.3077 39.9989 29.5494V32.7775C39.9989 34.0213 39.4906 35.1494 38.6729 35.9671C37.8552 36.7848 36.725 37.2932 35.4833 37.2932H26.0708C24.8281 37.2932 23.6989 36.7848 22.8823 35.9671C22.0646 35.1484 21.5562 34.0192 21.5562 32.7775V29.5494C21.5562 28.3057 22.0646 27.1775 22.8823 26.3598C23.6989 25.5421 24.8281 25.0338 26.0708 25.0338ZM35.4833 26.9088H26.0708C25.3458 26.9088 24.6854 27.2077 24.2073 27.6859C23.727 28.165 23.4312 28.8234 23.4312 29.5494V32.7775C23.4312 33.5036 23.7291 34.164 24.2073 34.6421C24.6875 35.1213 25.3458 35.4182 26.0708 35.4182H35.4833C36.2093 35.4182 36.8698 35.1202 37.3479 34.6421C37.827 34.1619 38.1239 33.5036 38.1239 32.7775V29.5494C38.1239 28.8234 37.826 28.164 37.3479 27.6859C36.8677 27.2077 36.2093 26.9088 35.4833 26.9088ZM35.4833 2.57129H26.0708C25.3458 2.57129 24.6854 2.87025 24.2073 3.34837C23.727 3.8265 23.4312 4.48587 23.4312 5.21191V17.4234C23.4312 18.1494 23.7291 18.8088 24.2073 19.2869C24.6875 19.7671 25.3458 20.064 26.0708 20.064H35.4833C36.2093 20.064 36.8698 19.765 37.3479 19.2869C37.827 18.8077 38.1239 18.1494 38.1239 17.4234V5.21191C38.1239 4.48587 37.826 3.8265 37.3479 3.34837C36.8677 2.86816 36.2093 2.57129 35.4833 2.57129Z" fill="#495E57"/>
</g>
</svg>
