<svg width="40" height="37" viewBox="0 0 40 37" fill="none" xmlns="http://www.w3.org/2000/svg">
<mask id="mask0_270_1561" style="mask-type:luminance" maskUnits="userSpaceOnUse" x="0" y="0" width="40" height="31">
<path d="M0 0H40V30.8001H0V0Z" fill="white"/>
</mask>
<g mask="url(#mask0_270_1561)">
<path d="M29.3334 25.3334H8.86361C8.53965 25.3344 8.21777 25.3084 7.89798 25.2552C7.57819 25.2011 7.26465 25.1219 6.9584 25.0157C6.65215 24.9084 6.35736 24.7771 6.07298 24.6209C5.78861 24.4646 5.51986 24.2855 5.26673 24.0834C5.01257 23.8813 4.77715 23.6605 4.56152 23.4188C4.34486 23.1771 4.15111 22.9188 3.97819 22.6438C3.80527 22.3698 3.65736 22.0823 3.5334 21.7823C3.40944 21.4834 3.31152 21.175 3.23965 20.8584L0.0333984 6.96668C0.0104816 6.86876 -0.000976562 6.7698 -0.000976562 6.6698C-0.000976562 6.56876 0.0104816 6.4698 0.0323568 6.37189C0.0542317 6.27397 0.0875652 6.18022 0.130273 6.08959C0.174024 5.99897 0.227148 5.91459 0.289648 5.83647C0.352148 5.75834 0.42194 5.68751 0.501107 5.62501C0.579232 5.56251 0.663607 5.50938 0.754232 5.46563C0.843815 5.42188 0.938607 5.38855 1.03652 5.36668C1.13444 5.3448 1.2334 5.33334 1.3334 5.33334H32.3563L33.3678 1.02813C33.4021 0.881252 33.4605 0.744793 33.5407 0.617709C33.6209 0.491668 33.7209 0.381251 33.8386 0.2875C33.9563 0.194792 34.0865 0.122917 34.2282 0.0739585C34.3699 0.025 34.5167 0 34.6667 0H38.6667C38.7542 0 38.8407 0.00833341 38.9272 0.0260417C39.0126 0.0427084 39.0959 0.0677084 39.1772 0.101042C39.2574 0.135417 39.3344 0.176042 39.4074 0.225C39.4803 0.272917 39.548 0.328126 39.6094 0.390626C39.6719 0.452084 39.7271 0.519793 39.7751 0.592709C39.824 0.665626 39.8647 0.742709 39.899 0.822918C39.9324 0.904168 39.9574 0.987501 39.974 1.07292C39.9917 1.15938 40.0001 1.24584 40.0001 1.33334C40.0001 1.42084 39.9917 1.50729 39.974 1.59375C39.9574 1.67917 39.9324 1.7625 39.899 1.84375C39.8647 1.92396 39.824 2.00104 39.7751 2.07396C39.7271 2.14688 39.6719 2.21459 39.6094 2.27605C39.548 2.33855 39.4803 2.39375 39.4074 2.44167C39.3344 2.49063 39.2574 2.53125 39.1772 2.56563C39.0959 2.59896 39.0126 2.62396 38.9272 2.64063C38.8407 2.65834 38.7542 2.66667 38.6667 2.66667H35.723L30.9334 23.0084C31.1417 23.1 31.3397 23.2084 31.5292 23.3344C31.7188 23.4605 31.8959 23.6011 32.0615 23.7573C32.2271 23.9136 32.3782 24.0823 32.5146 24.2636C32.6511 24.4459 32.7709 24.6375 32.8751 24.8396C32.9792 25.0417 33.0647 25.2511 33.1324 25.4677C33.2011 25.6855 33.2501 25.9063 33.2803 26.1313C33.3115 26.3563 33.3219 26.5834 33.3136 26.8105C33.3063 27.0375 33.2782 27.2625 33.2324 27.4844C33.1855 27.7073 33.1209 27.924 33.0376 28.1355C32.9532 28.3469 32.8532 28.55 32.7344 28.7438C32.6167 28.9386 32.4834 29.1209 32.3334 29.2928C32.1844 29.4646 32.0219 29.6219 31.8459 29.7657C31.6699 29.9094 31.4824 30.0375 31.2844 30.149C31.0865 30.2605 30.8813 30.3553 30.6667 30.4323C30.4532 30.5084 30.2344 30.5667 30.0105 30.6063C29.7865 30.6459 29.5605 30.6657 29.3334 30.6667H4.00007C3.91257 30.6667 3.82611 30.6584 3.73965 30.6407C3.65423 30.624 3.5709 30.599 3.48965 30.5657C3.40944 30.5313 3.33236 30.4907 3.25944 30.4417C3.18652 30.3938 3.11882 30.3386 3.05736 30.2761C2.99486 30.2146 2.93965 30.1469 2.89173 30.074C2.84277 30.0011 2.80215 29.924 2.76777 29.8438C2.73444 29.7625 2.70944 29.6792 2.69277 29.5938C2.67507 29.5073 2.66673 29.4209 2.66673 29.3334C2.66673 29.2459 2.67507 29.1594 2.69277 29.073C2.70944 28.9875 2.73444 28.9042 2.76777 28.823C2.80215 28.7428 2.84277 28.6657 2.89173 28.5928C2.93965 28.5198 2.99486 28.4521 3.05736 28.3907C3.11882 28.3282 3.18652 28.273 3.25944 28.225C3.33236 28.1761 3.40944 28.1355 3.48965 28.1011C3.5709 28.0678 3.65423 28.0428 3.73965 28.0261C3.82611 28.0084 3.91257 28 4.00007 28H29.3334C29.4209 28 29.5074 27.9917 29.5938 27.974C29.6792 27.9573 29.7626 27.9323 29.8438 27.899C29.924 27.8646 30.0011 27.824 30.074 27.775C30.1469 27.7271 30.2147 27.6719 30.2761 27.6094C30.3386 27.548 30.3938 27.4803 30.4417 27.4073C30.4907 27.3344 30.5313 27.2573 30.5657 27.1771C30.599 27.0959 30.624 27.0125 30.6407 26.9271C30.6584 26.8407 30.6667 26.7542 30.6667 26.6667C30.6667 26.5792 30.6584 26.4928 30.6407 26.4063C30.624 26.3209 30.599 26.2375 30.5657 26.1563C30.5313 26.0761 30.4907 25.999 30.4417 25.9261C30.3938 25.8532 30.3386 25.7855 30.2761 25.724C30.2147 25.6615 30.1469 25.6063 30.074 25.5584C30.0011 25.5094 29.924 25.4688 29.8438 25.4344C29.7626 25.4011 29.6792 25.3761 29.5938 25.3594C29.5074 25.3417 29.4209 25.3334 29.3334 25.3334ZM3.00944 8.00001L5.83861 20.2584C5.87715 20.4292 5.92923 20.5948 5.9959 20.7563C6.06257 20.9177 6.14277 21.0719 6.23548 21.2198C6.32819 21.3677 6.43236 21.5063 6.54902 21.6365C6.66465 21.7667 6.79173 21.8855 6.92819 21.9948C7.06465 22.1032 7.20944 22.2 7.36257 22.2834C7.51465 22.3677 7.67402 22.4386 7.83861 22.4959C8.00319 22.5532 8.17194 22.5959 8.34382 22.625C8.51673 22.6532 8.68965 22.6677 8.86361 22.6667H28.2771L31.7334 8.00001H3.00944Z" fill="white"/>
</g>
<mask id="mask1_270_1561" style="mask-type:luminance" maskUnits="userSpaceOnUse" x="21" y="28" width="9" height="9">
<path d="M21 28H29.2667V36.1333H21V28Z" fill="white"/>
</mask>
<g mask="url(#mask1_270_1561)">
<path d="M25.1333 28.1328C25.3958 28.1328 25.6562 28.1589 25.9135 28.2099C26.1708 28.2609 26.4218 28.337 26.6646 28.437C26.9062 28.538 27.1375 28.6609 27.3552 28.8068C27.5739 28.9526 27.776 29.1182 27.9614 29.3047C28.1479 29.4901 28.3135 29.6922 28.4593 29.9109C28.6052 30.1286 28.7281 30.3599 28.8291 30.6016C28.9291 30.8443 29.0052 31.0953 29.0562 31.3526C29.1073 31.6099 29.1333 31.8703 29.1333 32.1328C29.1333 32.3953 29.1073 32.6557 29.0562 32.913C29.0052 33.1703 28.9291 33.4214 28.8291 33.663C28.7281 33.9057 28.6052 34.137 28.4593 34.3547C28.3135 34.5734 28.1479 34.7755 27.9614 34.9609C27.776 35.1474 27.5739 35.313 27.3552 35.4589C27.1375 35.6047 26.9062 35.7276 26.6646 35.8287C26.4218 35.9287 26.1708 36.0047 25.9135 36.0557C25.6562 36.1068 25.3958 36.1328 25.1333 36.1328C24.8708 36.1328 24.6104 36.1068 24.3531 36.0557C24.0958 36.0047 23.8448 35.9287 23.6021 35.8287C23.3604 35.7276 23.1291 35.6047 22.9114 35.4589C22.6927 35.313 22.4906 35.1474 22.3052 34.9609C22.1187 34.7755 21.9531 34.5734 21.8073 34.3547C21.6614 34.137 21.5385 33.9057 21.4375 33.663C21.3375 33.4214 21.2614 33.1703 21.2104 32.913C21.1593 32.6557 21.1333 32.3953 21.1333 32.1328C21.1333 31.8703 21.1593 31.6099 21.2104 31.3526C21.2614 31.0953 21.3375 30.8443 21.4375 30.6016C21.5385 30.3599 21.6614 30.1286 21.8073 29.9109C21.9531 29.6922 22.1187 29.4901 22.3052 29.3047C22.4906 29.1182 22.6927 28.9526 22.9114 28.8068C23.1291 28.6609 23.3604 28.538 23.6021 28.437C23.8448 28.337 24.0958 28.2609 24.3531 28.2099C24.6104 28.1589 24.8708 28.1328 25.1333 28.1328ZM25.1333 33.4662C25.2208 33.4662 25.3073 33.4578 25.3937 33.4401C25.4791 33.4234 25.5625 33.3984 25.6437 33.3651C25.7239 33.3307 25.801 33.2901 25.8739 33.2412C25.9468 33.1932 26.0146 33.138 26.076 33.0755C26.1385 33.0141 26.1937 32.9464 26.2416 32.8734C26.2906 32.8005 26.3312 32.7234 26.3656 32.6432C26.3989 32.562 26.4239 32.4787 26.4406 32.3932C26.4583 32.3068 26.4666 32.2203 26.4666 32.1328C26.4666 32.0453 26.4583 31.9589 26.4406 31.8724C26.4239 31.787 26.3989 31.7037 26.3656 31.6224C26.3312 31.5422 26.2906 31.4651 26.2416 31.3922C26.1937 31.3193 26.1385 31.2516 26.076 31.1901C26.0146 31.1276 25.9468 31.0724 25.8739 31.0245C25.801 30.9755 25.7239 30.9349 25.6437 30.9005C25.5625 30.8672 25.4791 30.8422 25.3937 30.8255C25.3073 30.8078 25.2208 30.7995 25.1333 30.7995C25.0458 30.7995 24.9593 30.8078 24.8729 30.8255C24.7875 30.8422 24.7041 30.8672 24.6229 30.9005C24.5427 30.9349 24.4656 30.9755 24.3927 31.0245C24.3198 31.0724 24.2521 31.1276 24.1906 31.1901C24.1281 31.2516 24.0729 31.3193 24.025 31.3922C23.976 31.4651 23.9354 31.5422 23.901 31.6224C23.8677 31.7037 23.8427 31.787 23.826 31.8724C23.8083 31.9589 23.8 32.0453 23.8 32.1328C23.8 32.2203 23.8083 32.3068 23.826 32.3932C23.8427 32.4787 23.8677 32.562 23.901 32.6432C23.9354 32.7234 23.976 32.8005 24.025 32.8734C24.0729 32.9464 24.1281 33.0141 24.1906 33.0755C24.2521 33.138 24.3198 33.1932 24.3927 33.2412C24.4656 33.2901 24.5427 33.3307 24.6229 33.3651C24.7041 33.3984 24.7875 33.4234 24.8729 33.4401C24.9593 33.4578 25.0458 33.4662 25.1333 33.4662Z" fill="white"/>
</g>
<mask id="mask2_270_1561" style="mask-type:luminance" maskUnits="userSpaceOnUse" x="6" y="28" width="9" height="9">
<path d="M6 28H14.2667V36.1333H6V28Z" fill="white"/>
</mask>
<g mask="url(#mask2_270_1561)">
<path d="M10.1333 28.1328C10.3958 28.1328 10.6562 28.1589 10.9135 28.2099C11.1708 28.2609 11.4218 28.337 11.6646 28.437C11.9062 28.538 12.1375 28.6609 12.3552 28.8068C12.5739 28.9526 12.776 29.1182 12.9614 29.3047C13.1479 29.4901 13.3135 29.6922 13.4593 29.9109C13.6052 30.1286 13.7281 30.3599 13.8291 30.6016C13.9291 30.8443 14.0052 31.0953 14.0562 31.3526C14.1073 31.6099 14.1333 31.8703 14.1333 32.1328C14.1333 32.3953 14.1073 32.6557 14.0562 32.913C14.0052 33.1703 13.9291 33.4214 13.8291 33.663C13.7281 33.9057 13.6052 34.137 13.4593 34.3547C13.3135 34.5734 13.1479 34.7755 12.9614 34.9609C12.776 35.1474 12.5739 35.313 12.3552 35.4589C12.1375 35.6047 11.9062 35.7276 11.6646 35.8287C11.4218 35.9287 11.1708 36.0047 10.9135 36.0557C10.6562 36.1068 10.3958 36.1328 10.1333 36.1328C9.8708 36.1328 9.61038 36.1068 9.35309 36.0557C9.0958 36.0047 8.84476 35.9287 8.60309 35.8287C8.36038 35.7276 8.12913 35.6047 7.91143 35.4589C7.69268 35.313 7.49059 35.1474 7.30518 34.9609C7.11872 34.7755 6.95309 34.5734 6.80726 34.3547C6.66143 34.137 6.53851 33.9057 6.43747 33.663C6.33747 33.4214 6.26143 33.1703 6.21038 32.913C6.15934 32.6557 6.1333 32.3953 6.1333 32.1328C6.1333 31.8703 6.15934 31.6099 6.21038 31.3526C6.26143 31.0953 6.33747 30.8443 6.43747 30.6016C6.53851 30.3599 6.66143 30.1286 6.80726 29.9109C6.95309 29.6922 7.11872 29.4901 7.30518 29.3047C7.49059 29.1182 7.69268 28.9526 7.91143 28.8068C8.12913 28.6609 8.36038 28.538 8.60309 28.437C8.84476 28.337 9.0958 28.2609 9.35309 28.2099C9.61038 28.1589 9.8708 28.1328 10.1333 28.1328ZM10.1333 33.4662C10.2208 33.4662 10.3073 33.4578 10.3937 33.4401C10.4791 33.4234 10.5625 33.3984 10.6437 33.3651C10.7239 33.3307 10.801 33.2901 10.8739 33.2412C10.9468 33.1932 11.0146 33.138 11.076 33.0755C11.1385 33.0141 11.1937 32.9464 11.2416 32.8734C11.2906 32.8005 11.3312 32.7234 11.3656 32.6432C11.3989 32.562 11.4239 32.4787 11.4406 32.3932C11.4583 32.3068 11.4666 32.2203 11.4666 32.1328C11.4666 32.0453 11.4583 31.9589 11.4406 31.8724C11.4239 31.787 11.3989 31.7037 11.3656 31.6224C11.3312 31.5422 11.2906 31.4651 11.2416 31.3922C11.1937 31.3193 11.1385 31.2516 11.076 31.1901C11.0146 31.1276 10.9468 31.0724 10.8739 31.0245C10.801 30.9755 10.7239 30.9349 10.6437 30.9005C10.5625 30.8672 10.4791 30.8422 10.3937 30.8255C10.3073 30.8078 10.2208 30.7995 10.1333 30.7995C10.0458 30.7995 9.95934 30.8078 9.87288 30.8255C9.78747 30.8422 9.70413 30.8672 9.62288 30.9005C9.54268 30.9349 9.46559 30.9755 9.39268 31.0245C9.31976 31.0724 9.25205 31.1276 9.19059 31.1901C9.12809 31.2516 9.07288 31.3193 9.02497 31.3922C8.97601 31.4651 8.93538 31.5422 8.90101 31.6224C8.86768 31.7037 8.84268 31.787 8.82601 31.8724C8.8083 31.9589 8.79997 32.0453 8.79997 32.1328C8.79997 32.2203 8.8083 32.3068 8.82601 32.3932C8.84268 32.4787 8.86768 32.562 8.90101 32.6432C8.93538 32.7234 8.97601 32.8005 9.02497 32.8734C9.07288 32.9464 9.12809 33.0141 9.19059 33.0755C9.25205 33.138 9.31976 33.1932 9.39268 33.2412C9.46559 33.2901 9.54268 33.3307 9.62288 33.3651C9.70413 33.3984 9.78747 33.4234 9.87288 33.4401C9.95934 33.4578 10.0458 33.4662 10.1333 33.4662Z" fill="white"/>
</g>
</svg>
