<svg  viewBox="0 0 40 32" fill="none" xmlns="http://www.w3.org/2000/svg">
<path d="M0 32H28.8621L31 29H0V32Z" fill="#495E57"/>
<path d="M0 25V27.9973L31.9218 27.9973L33.9824 25H0Z" fill="#495E57"/>
<path d="M40 17H0V20H37.7518L40 17Z" fill="#495E57"/>
<path d="M37 21H0V24H34.9205L37 21Z" fill="#495E57"/>
<path d="M16.7628 14.0788H14.2835V8.80962H9.58766V14.0788H7.10838V6.61412H16.7628V14.0788ZM26.3212 14.0788V5.65404H26.3191C26.3191 5.4739 26.2701 5.29478 26.168 5.13818L23.1246 0.445241C22.9453 0.167861 22.6336 0 22.2989 0H9.17375C8.83908 0 8.52838 0.167861 8.34802 0.445241L5.30365 5.13818C5.20252 5.29478 5.15248 5.4739 5.15248 5.65404H5.15144V14.0788H0V16H40V14.0788H26.3212Z" fill="#495E57"/>
</svg>
