<svg width="46" height="40" viewBox="0 0 46 40" fill="none" xmlns="http://www.w3.org/2000/svg">
<path d="M1 9.15527H45V34.9999C45 37.2091 43.2091 38.9999 41 38.9999H5C2.79086 38.9999 1 37.2091 1 34.9999V9.15527Z" stroke="#FFFFFE" stroke-width="2"/>
<path d="M45 9.09668L1 9.09668V4.99959C1 2.79045 2.79086 0.999593 5 0.999593L41 0.999593C43.2091 0.999593 45 2.79045 45 4.99959V9.09668Z" stroke="#FFFFFE" stroke-width="2"/>
<path d="M6.17455 18.5712H9.5051C9.61438 18.5712 9.72237 18.5607 9.83035 18.5384C9.93703 18.5173 10.0411 18.4858 10.1426 18.4437C10.2428 18.4003 10.339 18.349 10.4301 18.2873C10.5212 18.2268 10.6057 18.1571 10.6825 18.0782C10.7606 18.0006 10.8295 17.9152 10.8894 17.8232C10.9505 17.7311 11.0012 17.6338 11.0442 17.5326C11.0858 17.4301 11.117 17.3249 11.1378 17.2171C11.16 17.1079 11.1704 16.9988 11.1704 16.8884V13.5227C11.1704 13.4123 11.16 13.3031 11.1378 13.194C11.117 13.0862 11.0858 12.981 11.0442 12.8785C11.0012 12.7772 10.9505 12.68 10.8894 12.5879C10.8295 12.4959 10.7606 12.4104 10.6825 12.3329C10.6057 12.254 10.5212 12.1843 10.4301 12.1238C10.339 12.062 10.2428 12.0108 10.1426 11.9674C10.0411 11.9253 9.93703 11.8937 9.83035 11.8727C9.72237 11.8504 9.61438 11.8398 9.5051 11.8398H6.17455C6.06527 11.8398 5.95729 11.8504 5.8493 11.8727C5.74262 11.8937 5.63854 11.9253 5.53706 11.9674C5.43689 12.0108 5.34061 12.062 5.24954 12.1238C5.15847 12.1843 5.07391 12.254 4.99715 12.3329C4.91909 12.4104 4.85014 12.4959 4.79029 12.5879C4.72915 12.68 4.67841 12.7772 4.63547 12.8785C4.59384 12.981 4.56262 13.0862 4.5418 13.194C4.51969 13.3031 4.50928 13.4123 4.50928 13.5227V16.8884C4.50928 16.9988 4.51969 17.1079 4.5418 17.2171C4.56262 17.3249 4.59384 17.4301 4.63547 17.5326C4.67841 17.6338 4.72915 17.7311 4.79029 17.8232C4.85014 17.9152 4.91909 18.0006 4.99715 18.0782C5.07391 18.1571 5.15847 18.2268 5.24954 18.2873C5.34061 18.349 5.43689 18.4003 5.53706 18.4437C5.63854 18.4858 5.74262 18.5173 5.8493 18.5384C5.95729 18.5607 6.06527 18.5712 6.17455 18.5712ZM6.17455 13.5227H9.5051V16.8884H6.17455V13.5227Z" fill="white"/>
<path d="M16.1663 18.5712H19.4968C19.6061 18.5712 19.7141 18.5607 19.822 18.5384C19.9287 18.5173 20.0328 18.4858 20.1343 18.4437C20.2345 18.4003 20.3307 18.349 20.4218 18.2873C20.5129 18.2268 20.5974 18.1571 20.6742 18.0782C20.7523 18.0006 20.8212 17.9152 20.8811 17.8232C20.9422 17.7311 20.9929 17.6338 21.0359 17.5326C21.0775 17.4301 21.1087 17.3249 21.1295 17.2171C21.1517 17.1079 21.1621 16.9988 21.1621 16.8884V13.5227C21.1621 13.4123 21.1517 13.3031 21.1295 13.194C21.1087 13.0862 21.0775 12.981 21.0359 12.8785C20.9929 12.7772 20.9422 12.68 20.8811 12.5879C20.8212 12.4959 20.7523 12.4104 20.6742 12.3329C20.5974 12.254 20.5129 12.1843 20.4218 12.1238C20.3307 12.062 20.2345 12.0108 20.1343 11.9674C20.0328 11.9253 19.9287 11.8937 19.822 11.8727C19.7141 11.8504 19.6061 11.8398 19.4968 11.8398H16.1663C16.057 11.8398 15.949 11.8504 15.841 11.8727C15.7343 11.8937 15.6302 11.9253 15.5288 11.9674C15.4286 12.0108 15.3323 12.062 15.2412 12.1238C15.1502 12.1843 15.0656 12.254 14.9888 12.3329C14.9108 12.4104 14.8418 12.4959 14.782 12.5879C14.7208 12.68 14.6701 12.7772 14.6272 12.8785C14.5855 12.981 14.5543 13.0862 14.5335 13.194C14.5114 13.3031 14.501 13.4123 14.501 13.5227V16.8884C14.501 16.9988 14.5114 17.1079 14.5335 17.2171C14.5543 17.3249 14.5855 17.4301 14.6272 17.5326C14.6701 17.6338 14.7208 17.7311 14.782 17.8232C14.8418 17.9152 14.9108 18.0006 14.9888 18.0782C15.0656 18.1571 15.1502 18.2268 15.2412 18.2873C15.3323 18.349 15.4286 18.4003 15.5288 18.4437C15.6302 18.4858 15.7343 18.5173 15.841 18.5384C15.949 18.5607 16.057 18.5712 16.1663 18.5712ZM16.1663 13.5227H19.4968V16.8884H16.1663V13.5227Z" fill="white"/>
<path d="M26.158 18.5712H29.4885C29.5978 18.5712 29.7058 18.5607 29.8137 18.5384C29.9204 18.5173 30.0245 18.4858 30.126 18.4437C30.2262 18.4003 30.3224 18.349 30.4135 18.2873C30.5046 18.2268 30.5891 18.1571 30.6659 18.0782C30.744 18.0006 30.8129 17.9152 30.8728 17.8232C30.9339 17.7311 30.9846 17.6338 31.0276 17.5326C31.0692 17.4301 31.1004 17.3249 31.1212 17.2171C31.1434 17.1079 31.1538 16.9988 31.1538 16.8884V13.5227C31.1538 13.4123 31.1434 13.3031 31.1212 13.194C31.1004 13.0862 31.0692 12.981 31.0276 12.8785C30.9846 12.7772 30.9339 12.68 30.8728 12.5879C30.8129 12.4959 30.744 12.4104 30.6659 12.3329C30.5891 12.254 30.5046 12.1843 30.4135 12.1238C30.3224 12.062 30.2262 12.0108 30.126 11.9674C30.0245 11.9253 29.9204 11.8937 29.8137 11.8727C29.7058 11.8504 29.5978 11.8398 29.4885 11.8398H26.158C26.0487 11.8398 25.9407 11.8504 25.8327 11.8727C25.726 11.8937 25.6219 11.9253 25.5205 11.9674C25.4203 12.0108 25.324 12.062 25.2329 12.1238C25.1419 12.1843 25.0573 12.254 24.9805 12.3329C24.9025 12.4104 24.8335 12.4959 24.7737 12.5879C24.7125 12.68 24.6618 12.7772 24.6189 12.8785C24.5772 12.981 24.546 13.0862 24.5252 13.194C24.5031 13.3031 24.4927 13.4123 24.4927 13.5227V16.8884C24.4927 16.9988 24.5031 17.1079 24.5252 17.2171C24.546 17.3249 24.5772 17.4301 24.6189 17.5326C24.6618 17.6338 24.7125 17.7311 24.7737 17.8232C24.8335 17.9152 24.9025 18.0006 24.9805 18.0782C25.0573 18.1571 25.1419 18.2268 25.2329 18.2873C25.324 18.349 25.4203 18.4003 25.5205 18.4437C25.6219 18.4858 25.726 18.5173 25.8327 18.5384C25.9407 18.5607 26.0487 18.5712 26.158 18.5712ZM26.158 13.5227H29.4885V16.8884H26.158V13.5227Z" fill="white"/>
<path d="M36.1492 18.5712H39.4797C39.589 18.5712 39.697 18.5607 39.805 18.5384C39.9116 18.5173 40.0157 18.4858 40.1172 18.4437C40.2174 18.4003 40.3136 18.349 40.4047 18.2873C40.4958 18.2268 40.5804 18.1571 40.6571 18.0782C40.7352 18.0006 40.8041 17.9152 40.864 17.8232C40.9251 17.7311 40.9759 17.6338 41.0188 17.5326C41.0604 17.4301 41.0916 17.3249 41.1125 17.2171C41.1346 17.1079 41.145 16.9988 41.145 16.8884V13.5227C41.145 13.4123 41.1346 13.3031 41.1125 13.194C41.0916 13.0862 41.0604 12.981 41.0188 12.8785C40.9759 12.7772 40.9251 12.68 40.864 12.5879C40.8041 12.4959 40.7352 12.4104 40.6571 12.3329C40.5804 12.254 40.4958 12.1843 40.4047 12.1238C40.3136 12.062 40.2174 12.0108 40.1172 11.9674C40.0157 11.9253 39.9116 11.8937 39.805 11.8727C39.697 11.8504 39.589 11.8398 39.4797 11.8398H36.1492C36.0399 11.8398 35.9319 11.8504 35.8239 11.8727C35.7172 11.8937 35.6132 11.9253 35.5117 11.9674C35.4115 12.0108 35.3152 12.062 35.2242 12.1238C35.1331 12.1843 35.0485 12.254 34.9718 12.3329C34.8937 12.4104 34.8247 12.4959 34.7649 12.5879C34.7038 12.68 34.653 12.7772 34.6101 12.8785C34.5685 12.981 34.5372 13.0862 34.5164 13.194C34.4943 13.3031 34.4839 13.4123 34.4839 13.5227V16.8884C34.4839 16.9988 34.4943 17.1079 34.5164 17.2171C34.5372 17.3249 34.5685 17.4301 34.6101 17.5326C34.653 17.6338 34.7038 17.7311 34.7649 17.8232C34.8247 17.9152 34.8937 18.0006 34.9718 18.0782C35.0485 18.1571 35.1331 18.2268 35.2242 18.2873C35.3152 18.349 35.4115 18.4003 35.5117 18.4437C35.6132 18.4858 35.7172 18.5173 35.8239 18.5384C35.9319 18.5607 36.0399 18.5712 36.1492 18.5712ZM36.1492 13.5227H39.4797V16.8884H36.1492V13.5227Z" fill="white"/>
<path d="M4.50903 26.1442C4.50903 26.2547 4.51944 26.3638 4.54156 26.4729C4.56237 26.5807 4.5936 26.6859 4.63523 26.7885C4.67816 26.8897 4.7289 26.987 4.79005 27.079C4.84989 27.171 4.91885 27.2565 4.99691 27.3341C5.07367 27.413 5.15823 27.4826 5.2493 27.5431C5.34037 27.6049 5.43664 27.6562 5.53682 27.6996C5.6383 27.7416 5.74238 27.7732 5.84906 27.7942C5.95704 27.8166 6.06502 27.8271 6.17431 27.8271H9.50486C9.61414 27.8271 9.72212 27.8166 9.83011 27.7942C9.93679 27.7732 10.0409 27.7416 10.1423 27.6996C10.2425 27.6562 10.3388 27.6049 10.4299 27.5431C10.5209 27.4826 10.6055 27.413 10.6823 27.3341C10.7603 27.2565 10.8293 27.171 10.8891 27.079C10.9503 26.987 11.001 26.8897 11.0439 26.7885C11.0856 26.6859 11.1168 26.5807 11.1376 26.4729C11.1597 26.3638 11.1701 26.2547 11.1701 26.1442V22.7786C11.1701 22.6681 11.1597 22.559 11.1376 22.4499C11.1168 22.3421 11.0856 22.2369 11.0439 22.1343C11.001 22.0331 10.9503 21.9358 10.8891 21.8438C10.8293 21.7518 10.7603 21.6663 10.6823 21.5887C10.6055 21.5098 10.5209 21.4402 10.4299 21.3797C10.3388 21.3179 10.2425 21.2666 10.1423 21.2232C10.0409 21.1812 9.93679 21.1496 9.83011 21.1286C9.72212 21.1062 9.61414 21.0957 9.50486 21.0957H6.17431C6.06502 21.0957 5.95704 21.1062 5.84906 21.1286C5.74238 21.1496 5.6383 21.1812 5.53682 21.2232C5.43664 21.2666 5.34037 21.3179 5.2493 21.3797C5.15823 21.4402 5.07367 21.5098 4.99691 21.5887C4.91885 21.6663 4.84989 21.7518 4.79005 21.8438C4.7289 21.9358 4.67816 22.0331 4.63523 22.1343C4.5936 22.2369 4.56237 22.3421 4.54156 22.4499C4.51944 22.559 4.50903 22.6681 4.50903 22.7786V26.1442ZM6.17431 22.7786H9.50486V26.1442H6.17431V22.7786Z" fill="white"/>
<path d="M14.501 25.7233C14.501 25.8338 14.5114 25.9429 14.5335 26.052C14.5543 26.1598 14.5855 26.265 14.6272 26.3676C14.6701 26.4688 14.7208 26.5661 14.782 26.6581C14.8418 26.7501 14.9108 26.8356 14.9888 26.9132C15.0656 26.9921 15.1502 27.0617 15.2412 27.1222C15.3323 27.184 15.4286 27.2353 15.5288 27.2787C15.6302 27.3207 15.7343 27.3523 15.841 27.3733C15.949 27.3957 16.057 27.4062 16.1663 27.4062H19.4968C19.6061 27.4062 19.7141 27.3957 19.822 27.3733C19.9287 27.3523 20.0328 27.3207 20.1343 27.2787C20.2345 27.2353 20.3307 27.184 20.4218 27.1222C20.5129 27.0617 20.5974 26.9921 20.6742 26.9132C20.7523 26.8356 20.8212 26.7501 20.8811 26.6581C20.9422 26.5661 20.9929 26.4688 21.0359 26.3676C21.0775 26.265 21.1087 26.1598 21.1295 26.052C21.1517 25.9429 21.1621 25.8338 21.1621 25.7233V22.3577C21.1621 22.2472 21.1517 22.1381 21.1295 22.029C21.1087 21.9212 21.0775 21.816 21.0359 21.7134C20.9929 21.6122 20.9422 21.5149 20.8811 21.4229C20.8212 21.3309 20.7523 21.2454 20.6742 21.1678C20.5974 21.0889 20.5129 21.0193 20.4218 20.9588C20.3307 20.897 20.2345 20.8457 20.1343 20.8023C20.0328 20.7603 19.9287 20.7287 19.822 20.7077C19.7141 20.6853 19.6061 20.6748 19.4968 20.6748H16.1663C16.057 20.6748 15.949 20.6853 15.841 20.7077C15.7343 20.7287 15.6302 20.7603 15.5288 20.8023C15.4286 20.8457 15.3323 20.897 15.2412 20.9588C15.1502 21.0193 15.0656 21.0889 14.9888 21.1678C14.9108 21.2454 14.8418 21.3309 14.782 21.4229C14.7208 21.5149 14.6701 21.6122 14.6272 21.7134C14.5855 21.816 14.5543 21.9212 14.5335 22.029C14.5114 22.1381 14.501 22.2472 14.501 22.3577V25.7233ZM16.1663 22.3577H19.4968V25.7233H16.1663V22.3577Z" fill="white"/>
<path d="M24.4927 25.7233C24.4927 25.8338 24.5031 25.9429 24.5252 26.052C24.546 26.1598 24.5772 26.265 24.6189 26.3676C24.6618 26.4688 24.7125 26.5661 24.7737 26.6581C24.8335 26.7501 24.9025 26.8356 24.9805 26.9132C25.0573 26.9921 25.1419 27.0617 25.2329 27.1222C25.324 27.184 25.4203 27.2353 25.5205 27.2787C25.6219 27.3207 25.726 27.3523 25.8327 27.3733C25.9407 27.3957 26.0487 27.4062 26.158 27.4062H29.4885C29.5978 27.4062 29.7058 27.3957 29.8137 27.3733C29.9204 27.3523 30.0245 27.3207 30.126 27.2787C30.2262 27.2353 30.3224 27.184 30.4135 27.1222C30.5046 27.0617 30.5891 26.9921 30.6659 26.9132C30.744 26.8356 30.8129 26.7501 30.8728 26.6581C30.9339 26.5661 30.9846 26.4688 31.0276 26.3676C31.0692 26.265 31.1004 26.1598 31.1212 26.052C31.1434 25.9429 31.1538 25.8338 31.1538 25.7233V22.3577C31.1538 22.2472 31.1434 22.1381 31.1212 22.029C31.1004 21.9212 31.0692 21.816 31.0276 21.7134C30.9846 21.6122 30.9339 21.5149 30.8728 21.4229C30.8129 21.3309 30.744 21.2454 30.6659 21.1678C30.5891 21.0889 30.5046 21.0193 30.4135 20.9588C30.3224 20.897 30.2262 20.8457 30.126 20.8023C30.0245 20.7603 29.9204 20.7287 29.8137 20.7077C29.7058 20.6853 29.5978 20.6748 29.4885 20.6748H26.158C26.0487 20.6748 25.9407 20.6853 25.8327 20.7077C25.726 20.7287 25.6219 20.7603 25.5205 20.8023C25.4203 20.8457 25.324 20.897 25.2329 20.9588C25.1419 21.0193 25.0573 21.0889 24.9805 21.1678C24.9025 21.2454 24.8335 21.3309 24.7737 21.4229C24.7125 21.5149 24.6618 21.6122 24.6189 21.7134C24.5772 21.816 24.546 21.9212 24.5252 22.029C24.5031 22.1381 24.4927 22.2472 24.4927 22.3577V25.7233ZM26.158 22.3577H29.4885V25.7233H26.158V22.3577Z" fill="white"/>
<path d="M34.4839 25.7233C34.4839 25.8338 34.4943 25.9429 34.5164 26.052C34.5372 26.1598 34.5685 26.265 34.6101 26.3676C34.653 26.4688 34.7038 26.5661 34.7649 26.6581C34.8247 26.7501 34.8937 26.8356 34.9718 26.9132C35.0485 26.9921 35.1331 27.0617 35.2242 27.1222C35.3152 27.184 35.4115 27.2353 35.5117 27.2787C35.6132 27.3207 35.7172 27.3523 35.8239 27.3733C35.9319 27.3957 36.0399 27.4062 36.1492 27.4062H39.4797C39.589 27.4062 39.697 27.3957 39.805 27.3733C39.9116 27.3523 40.0157 27.3207 40.1172 27.2787C40.2174 27.2353 40.3136 27.184 40.4047 27.1222C40.4958 27.0617 40.5804 26.9921 40.6571 26.9132C40.7352 26.8356 40.8041 26.7501 40.864 26.6581C40.9251 26.5661 40.9759 26.4688 41.0188 26.3676C41.0604 26.265 41.0916 26.1598 41.1125 26.052C41.1346 25.9429 41.145 25.8338 41.145 25.7233V22.3577C41.145 22.2472 41.1346 22.1381 41.1125 22.029C41.0916 21.9212 41.0604 21.816 41.0188 21.7134C40.9759 21.6122 40.9251 21.5149 40.864 21.4229C40.8041 21.3309 40.7352 21.2454 40.6571 21.1678C40.5804 21.0889 40.4958 21.0193 40.4047 20.9588C40.3136 20.897 40.2174 20.8457 40.1172 20.8023C40.0157 20.7603 39.9116 20.7287 39.805 20.7077C39.697 20.6853 39.589 20.6748 39.4797 20.6748H36.1492C36.0399 20.6748 35.9319 20.6853 35.8239 20.7077C35.7172 20.7287 35.6132 20.7603 35.5117 20.8023C35.4115 20.8457 35.3152 20.897 35.2242 20.9588C35.1331 21.0193 35.0485 21.0889 34.9718 21.1678C34.8937 21.2454 34.8247 21.3309 34.7649 21.4229C34.7038 21.5149 34.653 21.6122 34.6101 21.7134C34.5685 21.816 34.5372 21.9212 34.5164 22.029C34.4943 22.1381 34.4839 22.2472 34.4839 22.3577V25.7233ZM36.1492 22.3577H39.4797V25.7233H36.1492V22.3577Z" fill="white"/>
<path d="M4.50928 34.5583C4.50928 34.6687 4.51969 34.7779 4.5418 34.887C4.56262 34.9948 4.59384 35.1 4.63547 35.2025C4.67841 35.3038 4.72915 35.401 4.79029 35.4931C4.85014 35.5851 4.91909 35.6706 4.99715 35.7481C5.07391 35.827 5.15847 35.8967 5.24954 35.9572C5.34061 36.019 5.43689 36.0702 5.53706 36.1136C5.63854 36.1557 5.74262 36.1873 5.8493 36.2083C5.95729 36.2306 6.06527 36.2412 6.17455 36.2412H9.5051C9.61438 36.2412 9.72237 36.2306 9.83035 36.2083C9.93703 36.1873 10.0411 36.1557 10.1426 36.1136C10.2428 36.0702 10.339 36.019 10.4301 35.9572C10.5212 35.8967 10.6057 35.827 10.6825 35.7481C10.7606 35.6706 10.8295 35.5851 10.8894 35.4931C10.9505 35.401 11.0012 35.3038 11.0442 35.2025C11.0858 35.1 11.117 34.9948 11.1378 34.887C11.16 34.7779 11.1704 34.6687 11.1704 34.5583V31.1926C11.1704 31.0822 11.16 30.9731 11.1378 30.8639C11.117 30.7561 11.0858 30.6509 11.0442 30.5484C11.0012 30.4472 10.9505 30.3499 10.8894 30.2578C10.8295 30.1658 10.7606 30.0804 10.6825 30.0028C10.6057 29.9239 10.5212 29.8542 10.4301 29.7937C10.339 29.732 10.2428 29.6807 10.1426 29.6373C10.0411 29.5952 9.93703 29.5637 9.83035 29.5426C9.72237 29.5203 9.61438 29.5098 9.5051 29.5098H6.17455C6.06527 29.5098 5.95729 29.5203 5.8493 29.5426C5.74262 29.5637 5.63854 29.5952 5.53706 29.6373C5.43689 29.6807 5.34061 29.732 5.24954 29.7937C5.15847 29.8542 5.07391 29.9239 4.99715 30.0028C4.91909 30.0804 4.85014 30.1658 4.79029 30.2578C4.72915 30.3499 4.67841 30.4472 4.63547 30.5484C4.59384 30.6509 4.56262 30.7561 4.5418 30.8639C4.51969 30.9731 4.50928 31.0822 4.50928 31.1926V34.5583ZM6.17455 31.1926H9.5051V34.5583H6.17455V31.1926Z" fill="white"/>
<path d="M14.501 34.5583C14.501 34.6687 14.5114 34.7779 14.5335 34.887C14.5543 34.9948 14.5855 35.1 14.6272 35.2025C14.6701 35.3038 14.7208 35.401 14.782 35.4931C14.8418 35.5851 14.9108 35.6706 14.9888 35.7481C15.0656 35.827 15.1502 35.8967 15.2412 35.9572C15.3323 36.019 15.4286 36.0702 15.5288 36.1136C15.6302 36.1557 15.7343 36.1873 15.841 36.2083C15.949 36.2306 16.057 36.2412 16.1663 36.2412H19.4968C19.6061 36.2412 19.7141 36.2306 19.822 36.2083C19.9287 36.1873 20.0328 36.1557 20.1343 36.1136C20.2345 36.0702 20.3307 36.019 20.4218 35.9572C20.5129 35.8967 20.5974 35.827 20.6742 35.7481C20.7523 35.6706 20.8212 35.5851 20.8811 35.4931C20.9422 35.401 20.9929 35.3038 21.0359 35.2025C21.0775 35.1 21.1087 34.9948 21.1295 34.887C21.1517 34.7779 21.1621 34.6687 21.1621 34.5583V31.1926C21.1621 31.0822 21.1517 30.9731 21.1295 30.8639C21.1087 30.7561 21.0775 30.6509 21.0359 30.5484C20.9929 30.4472 20.9422 30.3499 20.8811 30.2578C20.8212 30.1658 20.7523 30.0804 20.6742 30.0028C20.5974 29.9239 20.5129 29.8542 20.4218 29.7937C20.3307 29.732 20.2345 29.6807 20.1343 29.6373C20.0328 29.5952 19.9287 29.5637 19.822 29.5426C19.7141 29.5203 19.6061 29.5098 19.4968 29.5098H16.1663C16.057 29.5098 15.949 29.5203 15.841 29.5426C15.7343 29.5637 15.6302 29.5952 15.5288 29.6373C15.4286 29.6807 15.3323 29.732 15.2412 29.7937C15.1502 29.8542 15.0656 29.9239 14.9888 30.0028C14.9108 30.0804 14.8418 30.1658 14.782 30.2578C14.7208 30.3499 14.6701 30.4472 14.6272 30.5484C14.5855 30.6509 14.5543 30.7561 14.5335 30.8639C14.5114 30.9731 14.501 31.0822 14.501 31.1926V34.5583ZM16.1663 31.1926H19.4968V34.5583H16.1663V31.1926Z" fill="white"/>
<path d="M24.4927 34.5583C24.4927 34.6687 24.5031 34.7779 24.5252 34.887C24.546 34.9948 24.5772 35.1 24.6189 35.2025C24.6618 35.3038 24.7125 35.401 24.7737 35.4931C24.8335 35.5851 24.9025 35.6706 24.9805 35.7481C25.0573 35.827 25.1419 35.8967 25.2329 35.9572C25.324 36.019 25.4203 36.0702 25.5205 36.1136C25.6219 36.1557 25.726 36.1873 25.8327 36.2083C25.9407 36.2306 26.0487 36.2412 26.158 36.2412H29.4885C29.5978 36.2412 29.7058 36.2306 29.8137 36.2083C29.9204 36.1873 30.0245 36.1557 30.126 36.1136C30.2262 36.0702 30.3224 36.019 30.4135 35.9572C30.5046 35.8967 30.5891 35.827 30.6659 35.7481C30.744 35.6706 30.8129 35.5851 30.8728 35.4931C30.9339 35.401 30.9846 35.3038 31.0276 35.2025C31.0692 35.1 31.1004 34.9948 31.1212 34.887C31.1434 34.7779 31.1538 34.6687 31.1538 34.5583V31.1926C31.1538 31.0822 31.1434 30.9731 31.1212 30.8639C31.1004 30.7561 31.0692 30.6509 31.0276 30.5484C30.9846 30.4472 30.9339 30.3499 30.8728 30.2578C30.8129 30.1658 30.744 30.0804 30.6659 30.0028C30.5891 29.9239 30.5046 29.8542 30.4135 29.7937C30.3224 29.732 30.2262 29.6807 30.126 29.6373C30.0245 29.5952 29.9204 29.5637 29.8137 29.5426C29.7058 29.5203 29.5978 29.5098 29.4885 29.5098H26.158C26.0487 29.5098 25.9407 29.5203 25.8327 29.5426C25.726 29.5637 25.6219 29.5952 25.5205 29.6373C25.4203 29.6807 25.324 29.732 25.2329 29.7937C25.1419 29.8542 25.0573 29.9239 24.9805 30.0028C24.9025 30.0804 24.8335 30.1658 24.7737 30.2578C24.7125 30.3499 24.6618 30.4472 24.6189 30.5484C24.5772 30.6509 24.546 30.7561 24.5252 30.8639C24.5031 30.9731 24.4927 31.0822 24.4927 31.1926V34.5583ZM26.158 31.1926H29.4885V34.5583H26.158V31.1926Z" fill="white"/>
<path d="M34.5867 34.5632C34.5867 34.6736 34.5971 34.7828 34.6192 34.8919C34.64 34.9997 34.6712 35.1049 34.7129 35.2074C34.7558 35.3086 34.8065 35.4059 34.8677 35.498C34.9275 35.59 34.9965 35.6754 35.0745 35.753C35.1513 35.8319 35.2359 35.9016 35.3269 35.9621C35.418 36.0239 35.5143 36.0751 35.6145 36.1185C35.7159 36.1606 35.82 36.1921 35.9267 36.2132C36.0347 36.2355 36.1427 36.246 36.2519 36.246H39.5825C39.6918 36.246 39.7998 36.2355 39.9077 36.2132C40.0144 36.1921 40.1185 36.1606 40.22 36.1185C40.3202 36.0751 40.4164 36.0239 40.5075 35.9621C40.5986 35.9016 40.6831 35.8319 40.7599 35.753C40.838 35.6754 40.9069 35.59 40.9668 35.498C41.0279 35.4059 41.0786 35.3086 41.1216 35.2074C41.1632 35.1049 41.1944 34.9997 41.2152 34.8919C41.2374 34.7828 41.2478 34.6736 41.2478 34.5632V31.1975C41.2478 31.0871 41.2374 30.9779 41.2152 30.8688C41.1944 30.761 41.1632 30.6558 41.1216 30.5533C41.0786 30.452 41.0279 30.3548 40.9668 30.2627C40.9069 30.1707 40.838 30.0852 40.7599 30.0077C40.6831 29.9288 40.5986 29.8591 40.5075 29.7986C40.4164 29.7368 40.3202 29.6856 40.22 29.6422C40.1185 29.6001 40.0144 29.5686 39.9077 29.5475C39.7998 29.5252 39.6918 29.5146 39.5825 29.5146H36.2519C36.1427 29.5146 36.0347 29.5252 35.9267 29.5475C35.82 29.5686 35.7159 29.6001 35.6145 29.6422C35.5143 29.6856 35.418 29.7368 35.3269 29.7986C35.2359 29.8591 35.1513 29.9288 35.0745 30.0077C34.9965 30.0852 34.9275 30.1707 34.8677 30.2627C34.8065 30.3548 34.7558 30.452 34.7129 30.5533C34.6712 30.6558 34.64 30.761 34.6192 30.8688C34.5971 30.9779 34.5867 31.0871 34.5867 31.1975V34.5632ZM36.2519 31.1975H39.5825V34.5632H36.2519V31.1975Z" fill="white"/>
</svg>
