<svg width="579" height="297" viewBox="0 0 579 297" fill="none" xmlns="http://www.w3.org/2000/svg">
<g filter="url(#filter0_d_404_73)">
<path d="M276 122C276 110.954 284.954 102 296 102H547C558.046 102 567 110.954 567 122V160C567 171.046 558.046 180 547 180H276V122Z" fill="#495E57" fill-opacity="0.72" shape-rendering="crispEdges"/>
</g>
<path d="M301.8 119.1L297.2 127.96V133H294.92V127.96L290.3 119.1H292.84L296.06 125.92L299.28 119.1H301.8ZM302.849 127.44C302.849 126.333 303.076 125.353 303.529 124.5C303.996 123.647 304.623 122.987 305.409 122.52C306.209 122.04 307.089 121.8 308.049 121.8C308.916 121.8 309.669 121.973 310.309 122.32C310.963 122.653 311.483 123.073 311.869 123.58V121.98H314.169V133H311.869V131.36C311.483 131.88 310.956 132.313 310.289 132.66C309.623 133.007 308.863 133.18 308.009 133.18C307.063 133.18 306.196 132.94 305.409 132.46C304.623 131.967 303.996 131.287 303.529 130.42C303.076 129.54 302.849 128.547 302.849 127.44ZM311.869 127.48C311.869 126.72 311.709 126.06 311.389 125.5C311.083 124.94 310.676 124.513 310.169 124.22C309.663 123.927 309.116 123.78 308.529 123.78C307.943 123.78 307.396 123.927 306.889 124.22C306.383 124.5 305.969 124.92 305.649 125.48C305.343 126.027 305.189 126.68 305.189 127.44C305.189 128.2 305.343 128.867 305.649 129.44C305.969 130.013 306.383 130.453 306.889 130.76C307.409 131.053 307.956 131.2 308.529 131.2C309.116 131.2 309.663 131.053 310.169 130.76C310.676 130.467 311.083 130.04 311.389 129.48C311.709 128.907 311.869 128.24 311.869 127.48ZM322.864 121.8C323.704 121.8 324.451 121.98 325.104 122.34C325.771 122.7 326.291 123.233 326.664 123.94C327.051 124.647 327.244 125.5 327.244 126.5V133H324.984V126.84C324.984 125.853 324.737 125.1 324.244 124.58C323.751 124.047 323.077 123.78 322.224 123.78C321.371 123.78 320.691 124.047 320.184 124.58C319.691 125.1 319.444 125.853 319.444 126.84V133H317.164V118.2H319.444V123.26C319.831 122.793 320.317 122.433 320.904 122.18C321.504 121.927 322.157 121.8 322.864 121.8ZM335.852 121.8C336.692 121.8 337.439 121.98 338.092 122.34C338.759 122.7 339.279 123.233 339.652 123.94C340.039 124.647 340.232 125.5 340.232 126.5V133H337.972V126.84C337.972 125.853 337.726 125.1 337.232 124.58C336.739 124.047 336.066 123.78 335.212 123.78C334.359 123.78 333.679 124.047 333.172 124.58C332.679 125.1 332.432 125.853 332.432 126.84V133H330.152V118.2H332.432V123.26C332.819 122.793 333.306 122.433 333.892 122.18C334.492 121.927 335.146 121.8 335.852 121.8ZM345.641 130.26L343.221 135.78H341.741L343.161 130.26H345.641ZM357.188 127.5L362.268 133H359.188L355.108 128.26V133H352.828V118.2H355.108V126.8L359.108 121.98H362.268L357.188 127.5ZM363.142 127.44C363.142 126.333 363.369 125.353 363.822 124.5C364.289 123.647 364.916 122.987 365.702 122.52C366.502 122.04 367.382 121.8 368.342 121.8C369.209 121.8 369.962 121.973 370.602 122.32C371.256 122.653 371.776 123.073 372.162 123.58V121.98H374.462V133H372.162V131.36C371.776 131.88 371.249 132.313 370.582 132.66C369.916 133.007 369.156 133.18 368.302 133.18C367.356 133.18 366.489 132.94 365.702 132.46C364.916 131.967 364.289 131.287 363.822 130.42C363.369 129.54 363.142 128.547 363.142 127.44ZM372.162 127.48C372.162 126.72 372.002 126.06 371.682 125.5C371.376 124.94 370.969 124.513 370.462 124.22C369.956 123.927 369.409 123.78 368.822 123.78C368.236 123.78 367.689 123.927 367.182 124.22C366.676 124.5 366.262 124.92 365.942 125.48C365.636 126.027 365.482 126.68 365.482 127.44C365.482 128.2 365.636 128.867 365.942 129.44C366.262 130.013 366.676 130.453 367.182 130.76C367.702 131.053 368.249 131.2 368.822 131.2C369.409 131.2 369.956 131.053 370.462 130.76C370.969 130.467 371.376 130.04 371.682 129.48C372.002 128.907 372.162 128.24 372.162 127.48ZM390.797 121.8C391.664 121.8 392.437 121.98 393.117 122.34C393.81 122.7 394.35 123.233 394.737 123.94C395.137 124.647 395.337 125.5 395.337 126.5V133H393.077V126.84C393.077 125.853 392.83 125.1 392.337 124.58C391.844 124.047 391.17 123.78 390.317 123.78C389.464 123.78 388.784 124.047 388.277 124.58C387.784 125.1 387.537 125.853 387.537 126.84V133H385.277V126.84C385.277 125.853 385.03 125.1 384.537 124.58C384.044 124.047 383.37 123.78 382.517 123.78C381.664 123.78 380.984 124.047 380.477 124.58C379.984 125.1 379.737 125.853 379.737 126.84V133H377.457V121.98H379.737V123.24C380.11 122.787 380.584 122.433 381.157 122.18C381.73 121.927 382.344 121.8 382.997 121.8C383.877 121.8 384.664 121.987 385.357 122.36C386.05 122.733 386.584 123.273 386.957 123.98C387.29 123.313 387.81 122.787 388.517 122.4C389.224 122 389.984 121.8 390.797 121.8ZM408.218 121.98V133H405.938V131.7C405.578 132.153 405.105 132.513 404.518 132.78C403.945 133.033 403.332 133.16 402.678 133.16C401.812 133.16 401.032 132.98 400.338 132.62C399.658 132.26 399.118 131.727 398.718 131.02C398.332 130.313 398.138 129.46 398.138 128.46V121.98H400.398V128.12C400.398 129.107 400.645 129.867 401.138 130.4C401.632 130.92 402.305 131.18 403.158 131.18C404.012 131.18 404.685 130.92 405.178 130.4C405.685 129.867 405.938 129.107 405.938 128.12V121.98H408.218ZM418.702 123.62C419.089 123.087 419.615 122.653 420.282 122.32C420.962 121.973 421.715 121.8 422.542 121.8C423.515 121.8 424.395 122.033 425.182 122.5C425.969 122.967 426.589 123.633 427.042 124.5C427.495 125.353 427.722 126.333 427.722 127.44C427.722 128.547 427.495 129.54 427.042 130.42C426.589 131.287 425.962 131.967 425.162 132.46C424.375 132.94 423.502 133.18 422.542 133.18C421.689 133.18 420.929 133.013 420.262 132.68C419.609 132.347 419.089 131.92 418.702 131.4V133H416.422V118.2H418.702V123.62ZM425.402 127.44C425.402 126.68 425.242 126.027 424.922 125.48C424.615 124.92 424.202 124.5 423.682 124.22C423.175 123.927 422.629 123.78 422.042 123.78C421.469 123.78 420.922 123.927 420.402 124.22C419.895 124.513 419.482 124.94 419.162 125.5C418.855 126.06 418.702 126.72 418.702 127.48C418.702 128.24 418.855 128.907 419.162 129.48C419.482 130.04 419.895 130.467 420.402 130.76C420.922 131.053 421.469 131.2 422.042 131.2C422.629 131.2 423.175 131.053 423.682 130.76C424.202 130.453 424.615 130.013 424.922 129.44C425.242 128.867 425.402 128.2 425.402 127.44ZM440.077 127.22C440.077 127.633 440.05 128.007 439.997 128.34H431.577C431.643 129.22 431.97 129.927 432.557 130.46C433.143 130.993 433.863 131.26 434.717 131.26C435.943 131.26 436.81 130.747 437.317 129.72H439.777C439.443 130.733 438.837 131.567 437.957 132.22C437.09 132.86 436.01 133.18 434.717 133.18C433.663 133.18 432.717 132.947 431.877 132.48C431.05 132 430.397 131.333 429.917 130.48C429.45 129.613 429.217 128.613 429.217 127.48C429.217 126.347 429.443 125.353 429.897 124.5C430.363 123.633 431.01 122.967 431.837 122.5C432.677 122.033 433.637 121.8 434.717 121.8C435.757 121.8 436.683 122.027 437.497 122.48C438.31 122.933 438.943 123.573 439.397 124.4C439.85 125.213 440.077 126.153 440.077 127.22ZM437.697 126.5C437.683 125.66 437.383 124.987 436.797 124.48C436.21 123.973 435.483 123.72 434.617 123.72C433.83 123.72 433.157 123.973 432.597 124.48C432.037 124.973 431.703 125.647 431.597 126.5H437.697ZM444.6 118.2V133H442.32V118.2H444.6ZM457.574 121.98V133H455.294V131.7C454.934 132.153 454.46 132.513 453.874 132.78C453.3 133.033 452.687 133.16 452.034 133.16C451.167 133.16 450.387 132.98 449.694 132.62C449.014 132.26 448.474 131.727 448.074 131.02C447.687 130.313 447.494 129.46 447.494 128.46V121.98H449.754V128.12C449.754 129.107 450 129.867 450.494 130.4C450.987 130.92 451.66 131.18 452.514 131.18C453.367 131.18 454.04 130.92 454.534 130.4C455.04 129.867 455.294 129.107 455.294 128.12V121.98H457.574ZM473.922 121.8C474.789 121.8 475.562 121.98 476.242 122.34C476.935 122.7 477.475 123.233 477.862 123.94C478.262 124.647 478.462 125.5 478.462 126.5V133H476.202V126.84C476.202 125.853 475.955 125.1 475.462 124.58C474.969 124.047 474.295 123.78 473.442 123.78C472.589 123.78 471.909 124.047 471.402 124.58C470.909 125.1 470.662 125.853 470.662 126.84V133H468.402V126.84C468.402 125.853 468.155 125.1 467.662 124.58C467.169 124.047 466.495 123.78 465.642 123.78C464.789 123.78 464.109 124.047 463.602 124.58C463.109 125.1 462.862 125.853 462.862 126.84V133H460.582V121.98H462.862V123.24C463.235 122.787 463.709 122.433 464.282 122.18C464.855 121.927 465.469 121.8 466.122 121.8C467.002 121.8 467.789 121.987 468.482 122.36C469.175 122.733 469.709 123.273 470.082 123.98C470.415 123.313 470.935 122.787 471.642 122.4C472.349 122 473.109 121.8 473.922 121.8ZM488.839 123.6C489.225 123.093 489.752 122.667 490.419 122.32C491.085 121.973 491.839 121.8 492.679 121.8C493.639 121.8 494.512 122.04 495.299 122.52C496.099 122.987 496.725 123.647 497.179 124.5C497.632 125.353 497.859 126.333 497.859 127.44C497.859 128.547 497.632 129.54 497.179 130.42C496.725 131.287 496.099 131.967 495.299 132.46C494.512 132.94 493.639 133.18 492.679 133.18C491.839 133.18 491.092 133.013 490.439 132.68C489.785 132.333 489.252 131.907 488.839 131.4V138.24H486.559V121.98H488.839V123.6ZM495.539 127.44C495.539 126.68 495.379 126.027 495.059 125.48C494.752 124.92 494.339 124.5 493.819 124.22C493.312 123.927 492.765 123.78 492.179 123.78C491.605 123.78 491.059 123.927 490.539 124.22C490.032 124.513 489.619 124.94 489.299 125.5C488.992 126.06 488.839 126.72 488.839 127.48C488.839 128.24 488.992 128.907 489.299 129.48C489.619 130.04 490.032 130.467 490.539 130.76C491.059 131.053 491.605 131.2 492.179 131.2C492.765 131.2 493.312 131.053 493.819 130.76C494.339 130.453 494.752 130.013 495.059 129.44C495.379 128.867 495.539 128.2 495.539 127.44ZM510.093 121.98V133H507.813V131.7C507.453 132.153 506.98 132.513 506.393 132.78C505.82 133.033 505.207 133.16 504.553 133.16C503.687 133.16 502.907 132.98 502.213 132.62C501.533 132.26 500.993 131.727 500.593 131.02C500.207 130.313 500.013 129.46 500.013 128.46V121.98H502.273V128.12C502.273 129.107 502.52 129.867 503.013 130.4C503.507 130.92 504.18 131.18 505.033 131.18C505.887 131.18 506.56 130.92 507.053 130.4C507.56 129.867 507.813 129.107 507.813 128.12V121.98H510.093ZM518.662 121.8C519.528 121.8 520.302 121.98 520.982 122.34C521.675 122.7 522.215 123.233 522.602 123.94C522.988 124.647 523.182 125.5 523.182 126.5V133H520.922V126.84C520.922 125.853 520.675 125.1 520.182 124.58C519.688 124.047 519.015 123.78 518.162 123.78C517.308 123.78 516.628 124.047 516.122 124.58C515.628 125.1 515.382 125.853 515.382 126.84V133H513.102V121.98H515.382V123.24C515.755 122.787 516.228 122.433 516.802 122.18C517.388 121.927 518.008 121.8 518.662 121.8ZM536.01 121.98L529.25 138.18H526.89L529.13 132.82L524.79 121.98H527.33L530.43 130.38L533.65 121.98H536.01ZM536.97 127.44C536.97 126.333 537.197 125.353 537.65 124.5C538.117 123.647 538.744 122.987 539.53 122.52C540.33 122.04 541.21 121.8 542.17 121.8C543.037 121.8 543.79 121.973 544.43 122.32C545.084 122.653 545.604 123.073 545.99 123.58V121.98H548.29V133H545.99V131.36C545.604 131.88 545.077 132.313 544.41 132.66C543.744 133.007 542.984 133.18 542.13 133.18C541.184 133.18 540.317 132.94 539.53 132.46C538.744 131.967 538.117 131.287 537.65 130.42C537.197 129.54 536.97 128.547 536.97 127.44ZM545.99 127.48C545.99 126.72 545.83 126.06 545.51 125.5C545.204 124.94 544.797 124.513 544.29 124.22C543.784 123.927 543.237 123.78 542.65 123.78C542.064 123.78 541.517 123.927 541.01 124.22C540.504 124.5 540.09 124.92 539.77 125.48C539.464 126.027 539.31 126.68 539.31 127.44C539.31 128.2 539.464 128.867 539.77 129.44C540.09 130.013 540.504 130.453 541.01 130.76C541.53 131.053 542.077 131.2 542.65 131.2C543.237 131.2 543.784 131.053 544.29 130.76C544.797 130.467 545.204 130.04 545.51 129.48C545.83 128.907 545.99 128.24 545.99 127.48ZM293.78 148.2V163H291.5V148.2H293.78ZM296.013 157.44C296.013 156.333 296.24 155.353 296.693 154.5C297.16 153.647 297.787 152.987 298.573 152.52C299.373 152.04 300.253 151.8 301.213 151.8C302.08 151.8 302.833 151.973 303.473 152.32C304.127 152.653 304.647 153.073 305.033 153.58V151.98H307.333V163H305.033V161.36C304.647 161.88 304.12 162.313 303.453 162.66C302.787 163.007 302.027 163.18 301.173 163.18C300.227 163.18 299.36 162.94 298.573 162.46C297.787 161.967 297.16 161.287 296.693 160.42C296.24 159.54 296.013 158.547 296.013 157.44ZM305.033 157.48C305.033 156.72 304.873 156.06 304.553 155.5C304.247 154.94 303.84 154.513 303.333 154.22C302.827 153.927 302.28 153.78 301.693 153.78C301.107 153.78 300.56 153.927 300.053 154.22C299.547 154.5 299.133 154.92 298.813 155.48C298.507 156.027 298.353 156.68 298.353 157.44C298.353 158.2 298.507 158.867 298.813 159.44C299.133 160.013 299.547 160.453 300.053 160.76C300.573 161.053 301.12 161.2 301.693 161.2C302.28 161.2 302.827 161.053 303.333 160.76C303.84 160.467 304.247 160.04 304.553 159.48C304.873 158.907 305.033 158.24 305.033 157.48ZM316.028 151.8C316.868 151.8 317.615 151.98 318.268 152.34C318.935 152.7 319.455 153.233 319.828 153.94C320.215 154.647 320.408 155.5 320.408 156.5V163H318.148V156.84C318.148 155.853 317.901 155.1 317.408 154.58C316.915 154.047 316.241 153.78 315.388 153.78C314.535 153.78 313.855 154.047 313.348 154.58C312.855 155.1 312.608 155.853 312.608 156.84V163H310.328V148.2H312.608V153.26C312.995 152.793 313.481 152.433 314.068 152.18C314.668 151.927 315.321 151.8 316.028 151.8ZM322.556 157.44C322.556 156.333 322.783 155.353 323.236 154.5C323.703 153.647 324.33 152.987 325.116 152.52C325.916 152.04 326.796 151.8 327.756 151.8C328.623 151.8 329.376 151.973 330.016 152.32C330.67 152.653 331.19 153.073 331.576 153.58V151.98H333.876V163H331.576V161.36C331.19 161.88 330.663 162.313 329.996 162.66C329.33 163.007 328.57 163.18 327.716 163.18C326.77 163.18 325.903 162.94 325.116 162.46C324.33 161.967 323.703 161.287 323.236 160.42C322.783 159.54 322.556 158.547 322.556 157.44ZM331.576 157.48C331.576 156.72 331.416 156.06 331.096 155.5C330.79 154.94 330.383 154.513 329.876 154.22C329.37 153.927 328.823 153.78 328.236 153.78C327.65 153.78 327.103 153.927 326.596 154.22C326.09 154.5 325.676 154.92 325.356 155.48C325.05 156.027 324.896 156.68 324.896 157.44C324.896 158.2 325.05 158.867 325.356 159.44C325.676 160.013 326.09 160.453 326.596 160.76C327.116 161.053 327.663 161.2 328.236 161.2C328.823 161.2 329.37 161.053 329.876 160.76C330.383 160.467 330.79 160.04 331.096 159.48C331.416 158.907 331.576 158.24 331.576 157.48ZM342.431 151.8C343.298 151.8 344.071 151.98 344.751 152.34C345.444 152.7 345.984 153.233 346.371 153.94C346.758 154.647 346.951 155.5 346.951 156.5V163H344.691V156.84C344.691 155.853 344.444 155.1 343.951 154.58C343.458 154.047 342.784 153.78 341.931 153.78C341.078 153.78 340.398 154.047 339.891 154.58C339.398 155.1 339.151 155.853 339.151 156.84V163H336.871V151.98H339.151V153.24C339.524 152.787 339.998 152.433 340.571 152.18C341.158 151.927 341.778 151.8 342.431 151.8ZM364.975 151.98L358.215 168.18H355.855L358.095 162.82L353.755 151.98H356.295L359.395 160.38L362.615 151.98H364.975ZM365.935 157.44C365.935 156.333 366.162 155.353 366.615 154.5C367.082 153.647 367.709 152.987 368.495 152.52C369.295 152.04 370.175 151.8 371.135 151.8C372.002 151.8 372.755 151.973 373.395 152.32C374.049 152.653 374.569 153.073 374.955 153.58V151.98H377.255V163H374.955V161.36C374.569 161.88 374.042 162.313 373.375 162.66C372.709 163.007 371.949 163.18 371.095 163.18C370.149 163.18 369.282 162.94 368.495 162.46C367.709 161.967 367.082 161.287 366.615 160.42C366.162 159.54 365.935 158.547 365.935 157.44ZM374.955 157.48C374.955 156.72 374.795 156.06 374.475 155.5C374.169 154.94 373.762 154.513 373.255 154.22C372.749 153.927 372.202 153.78 371.615 153.78C371.029 153.78 370.482 153.927 369.975 154.22C369.469 154.5 369.055 154.92 368.735 155.48C368.429 156.027 368.275 156.68 368.275 157.44C368.275 158.2 368.429 158.867 368.735 159.44C369.055 160.013 369.469 160.453 369.975 160.76C370.495 161.053 371.042 161.2 371.615 161.2C372.202 161.2 372.749 161.053 373.255 160.76C373.762 160.467 374.169 160.04 374.475 159.48C374.795 158.907 374.955 158.24 374.955 157.48ZM385.81 151.8C386.677 151.8 387.45 151.98 388.13 152.34C388.823 152.7 389.363 153.233 389.75 153.94C390.137 154.647 390.33 155.5 390.33 156.5V163H388.07V156.84C388.07 155.853 387.823 155.1 387.33 154.58C386.837 154.047 386.163 153.78 385.31 153.78C384.457 153.78 383.777 154.047 383.27 154.58C382.777 155.1 382.53 155.853 382.53 156.84V163H380.25V151.98H382.53V153.24C382.903 152.787 383.377 152.433 383.95 152.18C384.537 151.927 385.157 151.8 385.81 151.8ZM397.678 151.8C398.532 151.8 399.285 151.973 399.938 152.32C400.605 152.653 401.125 153.073 401.498 153.58V151.98H403.798V163.18C403.798 164.193 403.585 165.093 403.158 165.88C402.732 166.68 402.112 167.307 401.298 167.76C400.498 168.213 399.538 168.44 398.418 168.44C396.925 168.44 395.685 168.087 394.698 167.38C393.712 166.687 393.152 165.74 393.018 164.54H395.278C395.452 165.113 395.818 165.573 396.378 165.92C396.952 166.28 397.632 166.46 398.418 166.46C399.338 166.46 400.078 166.18 400.638 165.62C401.212 165.06 401.498 164.247 401.498 163.18V161.34C401.112 161.86 400.585 162.3 399.918 162.66C399.265 163.007 398.518 163.18 397.678 163.18C396.718 163.18 395.838 162.94 395.038 162.46C394.252 161.967 393.625 161.287 393.158 160.42C392.705 159.54 392.478 158.547 392.478 157.44C392.478 156.333 392.705 155.353 393.158 154.5C393.625 153.647 394.252 152.987 395.038 152.52C395.838 152.04 396.718 151.8 397.678 151.8ZM401.498 157.48C401.498 156.72 401.338 156.06 401.018 155.5C400.712 154.94 400.305 154.513 399.798 154.22C399.292 153.927 398.745 153.78 398.158 153.78C397.572 153.78 397.025 153.927 396.518 154.22C396.012 154.5 395.598 154.92 395.278 155.48C394.972 156.027 394.818 156.68 394.818 157.44C394.818 158.2 394.972 158.867 395.278 159.44C395.598 160.013 396.012 160.453 396.518 160.76C397.038 161.053 397.585 161.2 398.158 161.2C398.745 161.2 399.292 161.053 399.798 160.76C400.305 160.467 400.712 160.04 401.018 159.48C401.338 158.907 401.498 158.24 401.498 157.48ZM411.228 157.44C411.228 156.333 411.455 155.353 411.908 154.5C412.375 153.647 413.002 152.987 413.788 152.52C414.588 152.04 415.475 151.8 416.448 151.8C417.168 151.8 417.875 151.96 418.568 152.28C419.275 152.587 419.835 153 420.248 153.52V148.2H422.548V163H420.248V161.34C419.875 161.873 419.355 162.313 418.688 162.66C418.035 163.007 417.282 163.18 416.428 163.18C415.468 163.18 414.588 162.94 413.788 162.46C413.002 161.967 412.375 161.287 411.908 160.42C411.455 159.54 411.228 158.547 411.228 157.44ZM420.248 157.48C420.248 156.72 420.088 156.06 419.768 155.5C419.462 154.94 419.055 154.513 418.548 154.22C418.042 153.927 417.495 153.78 416.908 153.78C416.322 153.78 415.775 153.927 415.268 154.22C414.762 154.5 414.348 154.92 414.028 155.48C413.722 156.027 413.568 156.68 413.568 157.44C413.568 158.2 413.722 158.867 414.028 159.44C414.348 160.013 414.762 160.453 415.268 160.76C415.788 161.053 416.335 161.2 416.908 161.2C417.495 161.2 418.042 161.053 418.548 160.76C419.055 160.467 419.462 160.04 419.768 159.48C420.088 158.907 420.248 158.24 420.248 157.48ZM426.703 150.52C426.29 150.52 425.943 150.38 425.663 150.1C425.383 149.82 425.243 149.473 425.243 149.06C425.243 148.647 425.383 148.3 425.663 148.02C425.943 147.74 426.29 147.6 426.703 147.6C427.103 147.6 427.443 147.74 427.723 148.02C428.003 148.3 428.143 148.647 428.143 149.06C428.143 149.473 428.003 149.82 427.723 150.1C427.443 150.38 427.103 150.52 426.703 150.52ZM427.823 151.98V163H425.543V151.98H427.823ZM433.476 153.84V159.94C433.476 160.353 433.57 160.653 433.756 160.84C433.956 161.013 434.29 161.1 434.756 161.1H436.156V163H434.356C433.33 163 432.543 162.76 431.996 162.28C431.45 161.8 431.176 161.02 431.176 159.94V153.84H429.876V151.98H431.176V149.24H433.476V151.98H436.156V153.84H433.476ZM437.498 157.44C437.498 156.333 437.724 155.353 438.178 154.5C438.644 153.647 439.271 152.987 440.058 152.52C440.858 152.04 441.738 151.8 442.698 151.8C443.564 151.8 444.318 151.973 444.958 152.32C445.611 152.653 446.131 153.073 446.518 153.58V151.98H448.818V163H446.518V161.36C446.131 161.88 445.604 162.313 444.938 162.66C444.271 163.007 443.511 163.18 442.658 163.18C441.711 163.18 440.844 162.94 440.058 162.46C439.271 161.967 438.644 161.287 438.178 160.42C437.724 159.54 437.498 158.547 437.498 157.44ZM446.518 157.48C446.518 156.72 446.358 156.06 446.038 155.5C445.731 154.94 445.324 154.513 444.818 154.22C444.311 153.927 443.764 153.78 443.178 153.78C442.591 153.78 442.044 153.927 441.538 154.22C441.031 154.5 440.618 154.92 440.298 155.48C439.991 156.027 439.838 156.68 439.838 157.44C439.838 158.2 439.991 158.867 440.298 159.44C440.618 160.013 441.031 160.453 441.538 160.76C442.058 161.053 442.604 161.2 443.178 161.2C443.764 161.2 444.311 161.053 444.818 160.76C445.324 160.467 445.731 160.04 446.038 159.48C446.358 158.907 446.518 158.24 446.518 157.48ZM465.153 151.8C466.019 151.8 466.793 151.98 467.473 152.34C468.166 152.7 468.706 153.233 469.093 153.94C469.493 154.647 469.693 155.5 469.693 156.5V163H467.433V156.84C467.433 155.853 467.186 155.1 466.693 154.58C466.199 154.047 465.526 153.78 464.673 153.78C463.819 153.78 463.139 154.047 462.633 154.58C462.139 155.1 461.893 155.853 461.893 156.84V163H459.633V156.84C459.633 155.853 459.386 155.1 458.893 154.58C458.399 154.047 457.726 153.78 456.873 153.78C456.019 153.78 455.339 154.047 454.833 154.58C454.339 155.1 454.093 155.853 454.093 156.84V163H451.813V151.98H454.093V153.24C454.466 152.787 454.939 152.433 455.513 152.18C456.086 151.927 456.699 151.8 457.353 151.8C458.233 151.8 459.019 151.987 459.713 152.36C460.406 152.733 460.939 153.273 461.313 153.98C461.646 153.313 462.166 152.787 462.873 152.4C463.579 152 464.339 151.8 465.153 151.8ZM474.874 153.62C475.26 153.087 475.787 152.653 476.454 152.32C477.134 151.973 477.887 151.8 478.714 151.8C479.687 151.8 480.567 152.033 481.354 152.5C482.14 152.967 482.76 153.633 483.214 154.5C483.667 155.353 483.894 156.333 483.894 157.44C483.894 158.547 483.667 159.54 483.214 160.42C482.76 161.287 482.134 161.967 481.334 162.46C480.547 162.94 479.674 163.18 478.714 163.18C477.86 163.18 477.1 163.013 476.434 162.68C475.78 162.347 475.26 161.92 474.874 161.4V163H472.594V148.2H474.874V153.62ZM481.574 157.44C481.574 156.68 481.414 156.027 481.094 155.48C480.787 154.92 480.374 154.5 479.854 154.22C479.347 153.927 478.8 153.78 478.214 153.78C477.64 153.78 477.094 153.927 476.574 154.22C476.067 154.513 475.654 154.94 475.334 155.5C475.027 156.06 474.874 156.72 474.874 157.48C474.874 158.24 475.027 158.907 475.334 159.48C475.654 160.04 476.067 160.467 476.574 160.76C477.094 161.053 477.64 161.2 478.214 161.2C478.8 161.2 479.347 161.053 479.854 160.76C480.374 160.453 480.787 160.013 481.094 159.44C481.414 158.867 481.574 158.2 481.574 157.44ZM485.388 157.44C485.388 156.333 485.615 155.353 486.068 154.5C486.535 153.647 487.162 152.987 487.948 152.52C488.748 152.04 489.628 151.8 490.588 151.8C491.455 151.8 492.208 151.973 492.848 152.32C493.502 152.653 494.022 153.073 494.408 153.58V151.98H496.708V163H494.408V161.36C494.022 161.88 493.495 162.313 492.828 162.66C492.162 163.007 491.402 163.18 490.548 163.18C489.602 163.18 488.735 162.94 487.948 162.46C487.162 161.967 486.535 161.287 486.068 160.42C485.615 159.54 485.388 158.547 485.388 157.44ZM494.408 157.48C494.408 156.72 494.248 156.06 493.928 155.5C493.622 154.94 493.215 154.513 492.708 154.22C492.202 153.927 491.655 153.78 491.068 153.78C490.482 153.78 489.935 153.927 489.428 154.22C488.922 154.5 488.508 154.92 488.188 155.48C487.882 156.027 487.728 156.68 487.728 157.44C487.728 158.2 487.882 158.867 488.188 159.44C488.508 160.013 488.922 160.453 489.428 160.76C489.948 161.053 490.495 161.2 491.068 161.2C491.655 161.2 492.202 161.053 492.708 160.76C493.215 160.467 493.622 160.04 493.928 159.48C494.248 158.907 494.408 158.24 494.408 157.48ZM505.403 151.8C506.243 151.8 506.99 151.98 507.643 152.34C508.31 152.7 508.83 153.233 509.203 153.94C509.59 154.647 509.783 155.5 509.783 156.5V163H507.523V156.84C507.523 155.853 507.276 155.1 506.783 154.58C506.29 154.047 505.616 153.78 504.763 153.78C503.91 153.78 503.23 154.047 502.723 154.58C502.23 155.1 501.983 155.853 501.983 156.84V163H499.703V148.2H501.983V153.26C502.37 152.793 502.856 152.433 503.443 152.18C504.043 151.927 504.696 151.8 505.403 151.8ZM517.051 157.5L522.131 163H519.051L514.971 158.26V163H512.691V148.2H514.971V156.8L518.971 151.98H522.131L517.051 157.5ZM523.006 157.44C523.006 156.333 523.232 155.353 523.686 154.5C524.152 153.647 524.779 152.987 525.566 152.52C526.366 152.04 527.246 151.8 528.206 151.8C529.072 151.8 529.826 151.973 530.466 152.32C531.119 152.653 531.639 153.073 532.026 153.58V151.98H534.326V163H532.026V161.36C531.639 161.88 531.112 162.313 530.446 162.66C529.779 163.007 529.019 163.18 528.166 163.18C527.219 163.18 526.352 162.94 525.566 162.46C524.779 161.967 524.152 161.287 523.686 160.42C523.232 159.54 523.006 158.547 523.006 157.44ZM532.026 157.48C532.026 156.72 531.866 156.06 531.546 155.5C531.239 154.94 530.832 154.513 530.326 154.22C529.819 153.927 529.272 153.78 528.686 153.78C528.099 153.78 527.552 153.927 527.046 154.22C526.539 154.5 526.126 154.92 525.806 155.48C525.499 156.027 525.346 156.68 525.346 157.44C525.346 158.2 525.499 158.867 525.806 159.44C526.126 160.013 526.539 160.453 527.046 160.76C527.566 161.053 528.112 161.2 528.686 161.2C529.272 161.2 529.819 161.053 530.326 160.76C530.832 160.467 531.239 160.04 531.546 159.48C531.866 158.907 532.026 158.24 532.026 157.48ZM542.88 151.8C543.747 151.8 544.52 151.98 545.2 152.34C545.894 152.7 546.434 153.233 546.82 153.94C547.207 154.647 547.4 155.5 547.4 156.5V163H545.14V156.84C545.14 155.853 544.894 155.1 544.4 154.58C543.907 154.047 543.234 153.78 542.38 153.78C541.527 153.78 540.847 154.047 540.34 154.58C539.847 155.1 539.6 155.853 539.6 156.84V163H537.32V151.98H539.6V153.24C539.974 152.787 540.447 152.433 541.02 152.18C541.607 151.927 542.227 151.8 542.88 151.8Z" fill="white"/>
<g filter="url(#filter1_d_404_73)">
<mask id="mask0_404_73" style="mask-type:luminance" maskUnits="userSpaceOnUse" x="16" y="213" width="242" height="72">
<path d="M16.4121 213.673H257.472V284.356H16.4121V213.673Z" fill="white"/>
</mask>
<g mask="url(#mask0_404_73)">
<path fill-rule="evenodd" clip-rule="evenodd" d="M77.2652 214.169C52.2549 214.169 29.7623 229.665 20.4728 253.296L18.4025 258.556C13.514 271.001 22.5164 284.539 35.6927 284.539H238.306C251.482 284.539 260.485 271.001 255.596 258.556L253.526 253.296C244.236 229.665 221.744 214.169 196.733 214.169H77.2652Z" fill="#71817C"/>
</g>
<path fill-rule="evenodd" clip-rule="evenodd" d="M176.891 214.169H97.1055V222.284C97.1055 224.438 97.9469 226.504 99.4429 228.027L135.5 237.856C138.612 241.03 138.388 241.03 141.5 237.856L174.554 228.027C176.05 226.504 176.891 224.438 176.891 222.284V214.169Z" fill="#45474B"/>
<path fill-rule="evenodd" clip-rule="evenodd" d="M73.1179 99.3164C68.7102 99.3164 65.1374 102.946 65.1374 107.431C65.1374 111.971 65.518 116.763 66.2393 121.683C62.426 125.564 59.8682 130.811 59.8682 136.874C59.8682 147.809 67.8287 155.727 77.2184 158.554C82.7748 170.842 90.2144 182.58 99.3704 191.626C109.521 201.657 122.237 208.78 137.003 208.78C151.762 208.78 164.477 201.657 174.628 191.626C183.784 182.586 191.224 170.842 196.78 158.554C206.17 155.727 214.13 147.809 214.13 136.874C214.13 130.811 211.573 125.564 207.753 121.683C208.481 116.763 208.861 111.971 208.861 107.431C208.861 102.946 205.288 99.3164 200.881 99.3164H73.1179Z" fill="#FFEBCE"/>
<path fill-rule="evenodd" clip-rule="evenodd" d="M141 12.8565C138.756 11.7147 130.751 11.7144 128.5 12.8562L16.4064 94.7562C13.2209 96.3805 11.4778 99.9623 12.139 103.524C12.8001 107.092 15.7052 109.776 19.2514 110.109L136.275 120.936C136.756 120.977 137.244 120.977 137.725 120.936L254.749 110.109C258.295 109.776 261.2 107.092 261.861 103.524C262.522 99.9623 260.779 96.3805 257.594 94.7562L141 12.8565Z" fill="#45474B"/>
</g>
<mask id="mask1_404_73" style="mask-type:luminance" maskUnits="userSpaceOnUse" x="52" y="240" width="30" height="30">
<path d="M52 251.719C52 245.247 57.2466 240 63.7187 240H70.2812C76.7533 240 82 245.247 82 251.719V258.281C82 264.753 76.7533 270 70.2812 270H63.7187C57.2466 270 52 264.753 52 258.281V251.719Z" fill="white"/>
</mask>
<g mask="url(#mask1_404_73)">
<path d="M52 251.719C52 245.247 57.2466 240 63.7187 240H70.2812C76.7533 240 82 245.247 82 251.719V258.281C82 264.753 76.7533 270 70.2812 270H63.7187C57.2466 270 52 264.753 52 258.281V251.719Z" fill="#353933"/>
<path d="M70.3964 240.115H63.834C57.3619 240.115 52.1152 245.362 52.1152 251.834V258.396C52.1152 264.869 57.3619 270.115 63.834 270.115H70.3964C76.8685 270.115 82.1152 264.869 82.1152 258.396V251.834C82.1152 245.362 76.8685 240.115 70.3964 240.115Z" fill="#353933"/>
<path d="M52.1152 251.834C52.1152 245.362 57.3619 240.115 63.834 240.115H82.1152V258.396C82.1152 264.868 76.8685 270.115 70.3964 270.115H63.834C57.3619 270.115 52.1152 264.868 52.1152 258.396V251.834Z" fill="#45474B"/>
<g filter="url(#filter2_i_404_73)">
<path d="M73.3368 262.744C69.9045 266.176 64.3396 266.176 60.9072 262.744C57.4749 259.312 57.4749 253.747 60.9072 250.314C64.3396 246.882 69.9045 246.882 73.3368 250.314C76.7691 253.747 76.7691 259.312 73.3368 262.744Z" fill="white"/>
</g>
<g filter="url(#filter3_d_404_73)">
<path d="M66.5916 252.886L66.8831 252.411L67.166 252.753C67.3575 255.22 67.6128 260.185 67.1022 260.304C66.5916 260.423 66.549 255.408 66.5916 252.886Z" fill="#6C9F52" stroke="#6C9F52"/>
<path d="M60.1514 245.943C60.7751 248.224 59.4135 252.136 66.5439 253.09C69.6328 251.402 63.5692 247.622 60.1514 245.943Z" fill="#6C9F52" stroke="#6C9F52"/>
<path d="M76.682 248.161C74.1408 248.112 71.0484 245.742 66.4082 252.18C66.4406 255.555 73.2709 250.907 76.682 248.161Z" fill="#6C9F52" stroke="#6C9F52"/>
</g>
<g filter="url(#filter4_i_404_73)">
<path d="M57.2764 247.313C58.3119 247.313 59.1514 246.474 59.1514 245.438C59.1514 244.403 58.3119 243.563 57.2764 243.563C56.2408 243.563 55.4014 244.403 55.4014 245.438C55.4014 246.474 56.2408 247.313 57.2764 247.313Z" fill="white"/>
</g>
<path d="M67.1152 270.818C73.5873 270.818 78.8339 268.195 78.8339 264.959C78.8339 261.723 73.5873 259.1 67.1152 259.1C60.6431 259.1 55.3965 261.723 55.3965 264.959C55.3965 268.195 60.6431 270.818 67.1152 270.818Z" fill="#45474B"/>
<g filter="url(#filter5_i_404_73)">
<path d="M61.325 263.857C61.325 263.957 61.3016 264.048 61.2547 264.131C61.2094 264.212 61.1398 264.278 61.0461 264.328C60.9539 264.376 60.8406 264.401 60.7062 264.401H60.4789V264.958H60.0195V263.306H60.7062C60.8391 263.306 60.9516 263.329 61.0437 263.376C61.1375 263.423 61.2078 263.488 61.2547 263.571C61.3016 263.654 61.325 263.749 61.325 263.857ZM60.6617 264.035C60.7914 264.035 60.8562 263.976 60.8562 263.857C60.8562 263.737 60.7914 263.676 60.6617 263.676H60.4789V264.035H60.6617ZM62.5806 264.958L62.2525 264.349H62.2033V264.958H61.7439V263.306H62.4681C62.601 263.306 62.7135 263.329 62.8056 263.376C62.8978 263.422 62.9674 263.485 63.0142 263.566C63.0611 263.646 63.0845 263.736 63.0845 263.836C63.0845 263.948 63.0533 264.047 62.9908 264.133C62.9299 264.218 62.84 264.278 62.7213 264.314L63.0939 264.958H62.5806ZM62.2033 264.035H62.4306C62.4931 264.035 62.54 264.02 62.5713 263.99C62.6025 263.961 62.6181 263.918 62.6181 263.862C62.6181 263.808 62.6017 263.767 62.5689 263.737C62.5377 263.706 62.4916 263.69 62.4306 263.69H62.2033V264.035ZM63.9872 263.674V263.944H64.5146V264.293H63.9872V264.59H64.5849V264.958H63.5278V263.306H64.5849V263.674H63.9872ZM64.99 264.129C64.99 263.966 65.0236 263.822 65.0908 263.695C65.1595 263.567 65.2564 263.468 65.3814 263.397C65.5064 263.326 65.6501 263.29 65.8126 263.29C66.0189 263.29 66.1923 263.345 66.3329 263.456C66.4736 263.566 66.5642 263.715 66.6048 263.904H66.1103C66.0806 263.841 66.0392 263.794 65.9861 263.761C65.9345 263.728 65.8743 263.712 65.8056 263.712C65.6993 263.712 65.6142 263.75 65.5501 263.826C65.4876 263.901 65.4564 264.002 65.4564 264.129C65.4564 264.257 65.4876 264.359 65.5501 264.436C65.6142 264.511 65.6993 264.548 65.8056 264.548C65.8743 264.548 65.9345 264.532 65.9861 264.499C66.0392 264.466 66.0806 264.419 66.1103 264.356H66.6048C66.5642 264.545 66.4736 264.695 66.3329 264.806C66.1923 264.916 66.0189 264.97 65.8126 264.97C65.6501 264.97 65.5064 264.935 65.3814 264.865C65.2564 264.793 65.1595 264.694 65.0908 264.567C65.0236 264.439 64.99 264.293 64.99 264.129ZM67.8489 264.975C67.6942 264.975 67.552 264.939 67.4223 264.867C67.2927 264.794 67.1895 264.693 67.113 264.565C67.038 264.435 67.0005 264.289 67.0005 264.126C67.0005 263.964 67.038 263.819 67.113 263.69C67.1895 263.561 67.2927 263.46 67.4223 263.388C67.552 263.316 67.6942 263.28 67.8489 263.28C68.0052 263.28 68.1473 263.316 68.2755 263.388C68.4051 263.46 68.5075 263.561 68.5825 263.69C68.6575 263.819 68.695 263.964 68.695 264.126C68.695 264.289 68.6575 264.435 68.5825 264.565C68.5075 264.693 68.4051 264.794 68.2755 264.867C68.1458 264.939 68.0036 264.975 67.8489 264.975ZM67.8489 264.548C67.9661 264.548 68.0583 264.51 68.1255 264.433C68.1942 264.357 68.2286 264.255 68.2286 264.126C68.2286 263.995 68.1942 263.892 68.1255 263.817C68.0583 263.74 67.9661 263.702 67.8489 263.702C67.7301 263.702 67.6372 263.74 67.57 263.817C67.5028 263.892 67.4692 263.995 67.4692 264.126C67.4692 264.256 67.5028 264.359 67.57 264.436C67.6372 264.511 67.7301 264.548 67.8489 264.548ZM70.6663 264.958H70.207L69.5953 264.035V264.958H69.1359V263.306H69.5953L70.207 264.241V263.306H70.6663V264.958ZM71.6218 263.674V263.944H72.1491V264.293H71.6218V264.59H72.2194V264.958H71.1624V263.306H72.2194V263.674H71.6218ZM74.2113 264.958H73.7519L73.1402 264.035V264.958H72.6808V263.306H73.1402L73.7519 264.241V263.306H74.2113V264.958Z" fill="white"/>
</g>
</g>
<defs>
<filter id="filter0_d_404_73" x="264" y="90" width="315" height="102" filterUnits="userSpaceOnUse" color-interpolation-filters="sRGB">
<feFlood flood-opacity="0" result="BackgroundImageFix"/>
<feColorMatrix in="SourceAlpha" type="matrix" values="0 0 0 0 0 0 0 0 0 0 0 0 0 0 0 0 0 0 127 0" result="hardAlpha"/>
<feOffset/>
<feGaussianBlur stdDeviation="6"/>
<feComposite in2="hardAlpha" operator="out"/>
<feColorMatrix type="matrix" values="0 0 0 0 0 0 0 0 0 0 0 0 0 0 0 0 0 0 0.25 0"/>
<feBlend mode="normal" in2="BackgroundImageFix" result="effect1_dropShadow_404_73"/>
<feBlend mode="normal" in="SourceGraphic" in2="effect1_dropShadow_404_73" result="shape"/>
</filter>
<filter id="filter1_d_404_73" x="0" y="0" width="274" height="296.355" filterUnits="userSpaceOnUse" color-interpolation-filters="sRGB">
<feFlood flood-opacity="0" result="BackgroundImageFix"/>
<feColorMatrix in="SourceAlpha" type="matrix" values="0 0 0 0 0 0 0 0 0 0 0 0 0 0 0 0 0 0 127 0" result="hardAlpha"/>
<feOffset/>
<feGaussianBlur stdDeviation="6"/>
<feComposite in2="hardAlpha" operator="out"/>
<feColorMatrix type="matrix" values="0 0 0 0 0 0 0 0 0 0 0 0 0 0 0 0 0 0 0.25 0"/>
<feBlend mode="normal" in2="BackgroundImageFix" result="effect1_dropShadow_404_73"/>
<feBlend mode="normal" in="SourceGraphic" in2="effect1_dropShadow_404_73" result="shape"/>
</filter>
<filter id="filter2_i_404_73" x="58.333" y="247.74" width="17.578" height="21.5781" filterUnits="userSpaceOnUse" color-interpolation-filters="sRGB">
<feFlood flood-opacity="0" result="BackgroundImageFix"/>
<feBlend mode="normal" in="SourceGraphic" in2="BackgroundImageFix" result="shape"/>
<feColorMatrix in="SourceAlpha" type="matrix" values="0 0 0 0 0 0 0 0 0 0 0 0 0 0 0 0 0 0 127 0" result="hardAlpha"/>
<feOffset dy="4"/>
<feGaussianBlur stdDeviation="2"/>
<feComposite in2="hardAlpha" operator="arithmetic" k2="-1" k3="1"/>
<feColorMatrix type="matrix" values="0 0 0 0 0 0 0 0 0 0 0 0 0 0 0 0 0 0 0.25 0"/>
<feBlend mode="normal" in2="shape" result="effect1_innerShadow_404_73"/>
</filter>
<filter id="filter3_d_404_73" x="55.3766" y="245.006" width="26.6909" height="23.8008" filterUnits="userSpaceOnUse" color-interpolation-filters="sRGB">
<feFlood flood-opacity="0" result="BackgroundImageFix"/>
<feColorMatrix in="SourceAlpha" type="matrix" values="0 0 0 0 0 0 0 0 0 0 0 0 0 0 0 0 0 0 127 0" result="hardAlpha"/>
<feOffset dy="4"/>
<feGaussianBlur stdDeviation="2"/>
<feComposite in2="hardAlpha" operator="out"/>
<feColorMatrix type="matrix" values="0 0 0 0 0 0 0 0 0 0 0 0 0 0 0 0 0 0 0.25 0"/>
<feBlend mode="normal" in2="BackgroundImageFix" result="effect1_dropShadow_404_73"/>
<feBlend mode="normal" in="SourceGraphic" in2="effect1_dropShadow_404_73" result="shape"/>
</filter>
<filter id="filter4_i_404_73" x="55.4014" y="243.563" width="3.75" height="7.75" filterUnits="userSpaceOnUse" color-interpolation-filters="sRGB">
<feFlood flood-opacity="0" result="BackgroundImageFix"/>
<feBlend mode="normal" in="SourceGraphic" in2="BackgroundImageFix" result="shape"/>
<feColorMatrix in="SourceAlpha" type="matrix" values="0 0 0 0 0 0 0 0 0 0 0 0 0 0 0 0 0 0 127 0" result="hardAlpha"/>
<feOffset dy="4"/>
<feGaussianBlur stdDeviation="2"/>
<feComposite in2="hardAlpha" operator="arithmetic" k2="-1" k3="1"/>
<feColorMatrix type="matrix" values="0 0 0 0 0 0 0 0 0 0 0 0 0 0 0 0 0 0 0.25 0"/>
<feBlend mode="normal" in2="shape" result="effect1_innerShadow_404_73"/>
</filter>
<filter id="filter5_i_404_73" x="60.0195" y="263.28" width="14.1918" height="5.69434" filterUnits="userSpaceOnUse" color-interpolation-filters="sRGB">
<feFlood flood-opacity="0" result="BackgroundImageFix"/>
<feBlend mode="normal" in="SourceGraphic" in2="BackgroundImageFix" result="shape"/>
<feColorMatrix in="SourceAlpha" type="matrix" values="0 0 0 0 0 0 0 0 0 0 0 0 0 0 0 0 0 0 127 0" result="hardAlpha"/>
<feOffset dy="4"/>
<feGaussianBlur stdDeviation="2"/>
<feComposite in2="hardAlpha" operator="arithmetic" k2="-1" k3="1"/>
<feColorMatrix type="matrix" values="0 0 0 0 0 0 0 0 0 0 0 0 0 0 0 0 0 0 0.25 0"/>
<feBlend mode="normal" in2="shape" result="effect1_innerShadow_404_73"/>
</filter>
</defs>
</svg>
