<svg width="579" height="297" viewBox="0 0 579 297" fill="none" xmlns="http://www.w3.org/2000/svg">
<g filter="url(#filter0_d_398_79)">
<path d="M276 122C276 110.954 284.954 102 296 102H547C558.046 102 567 110.954 567 122V160C567 171.046 558.046 180 547 180H276V122Z" fill="#495E57" fill-opacity="0.72" shape-rendering="crispEdges"/>
</g>
<path d="M302.8 119.1L298.2 127.96V133H295.92V127.96L291.3 119.1H293.84L297.06 125.92L300.28 119.1H302.8ZM303.849 127.44C303.849 126.333 304.076 125.353 304.529 124.5C304.996 123.647 305.623 122.987 306.409 122.52C307.209 122.04 308.089 121.8 309.049 121.8C309.916 121.8 310.669 121.973 311.309 122.32C311.963 122.653 312.483 123.073 312.869 123.58V121.98H315.169V133H312.869V131.36C312.483 131.88 311.956 132.313 311.289 132.66C310.623 133.007 309.863 133.18 309.009 133.18C308.063 133.18 307.196 132.94 306.409 132.46C305.623 131.967 304.996 131.287 304.529 130.42C304.076 129.54 303.849 128.547 303.849 127.44ZM312.869 127.48C312.869 126.72 312.709 126.06 312.389 125.5C312.083 124.94 311.676 124.513 311.169 124.22C310.663 123.927 310.116 123.78 309.529 123.78C308.943 123.78 308.396 123.927 307.889 124.22C307.383 124.5 306.969 124.92 306.649 125.48C306.343 126.027 306.189 126.68 306.189 127.44C306.189 128.2 306.343 128.867 306.649 129.44C306.969 130.013 307.383 130.453 307.889 130.76C308.409 131.053 308.956 131.2 309.529 131.2C310.116 131.2 310.663 131.053 311.169 130.76C311.676 130.467 312.083 130.04 312.389 129.48C312.709 128.907 312.869 128.24 312.869 127.48ZM323.864 121.8C324.704 121.8 325.451 121.98 326.104 122.34C326.771 122.7 327.291 123.233 327.664 123.94C328.051 124.647 328.244 125.5 328.244 126.5V133H325.984V126.84C325.984 125.853 325.737 125.1 325.244 124.58C324.751 124.047 324.077 123.78 323.224 123.78C322.371 123.78 321.691 124.047 321.184 124.58C320.691 125.1 320.444 125.853 320.444 126.84V133H318.164V118.2H320.444V123.26C320.831 122.793 321.317 122.433 321.904 122.18C322.504 121.927 323.157 121.8 323.864 121.8ZM336.852 121.8C337.692 121.8 338.439 121.98 339.092 122.34C339.759 122.7 340.279 123.233 340.652 123.94C341.039 124.647 341.232 125.5 341.232 126.5V133H338.972V126.84C338.972 125.853 338.726 125.1 338.232 124.58C337.739 124.047 337.066 123.78 336.212 123.78C335.359 123.78 334.679 124.047 334.172 124.58C333.679 125.1 333.432 125.853 333.432 126.84V133H331.152V118.2H333.432V123.26C333.819 122.793 334.306 122.433 334.892 122.18C335.492 121.927 336.146 121.8 336.852 121.8ZM346.641 130.26L344.221 135.78H342.741L344.161 130.26H346.641ZM358.188 127.5L363.268 133H360.188L356.108 128.26V133H353.828V118.2H356.108V126.8L360.108 121.98H363.268L358.188 127.5ZM364.142 127.44C364.142 126.333 364.369 125.353 364.822 124.5C365.289 123.647 365.916 122.987 366.702 122.52C367.502 122.04 368.382 121.8 369.342 121.8C370.209 121.8 370.962 121.973 371.602 122.32C372.256 122.653 372.776 123.073 373.162 123.58V121.98H375.462V133H373.162V131.36C372.776 131.88 372.249 132.313 371.582 132.66C370.916 133.007 370.156 133.18 369.302 133.18C368.356 133.18 367.489 132.94 366.702 132.46C365.916 131.967 365.289 131.287 364.822 130.42C364.369 129.54 364.142 128.547 364.142 127.44ZM373.162 127.48C373.162 126.72 373.002 126.06 372.682 125.5C372.376 124.94 371.969 124.513 371.462 124.22C370.956 123.927 370.409 123.78 369.822 123.78C369.236 123.78 368.689 123.927 368.182 124.22C367.676 124.5 367.262 124.92 366.942 125.48C366.636 126.027 366.482 126.68 366.482 127.44C366.482 128.2 366.636 128.867 366.942 129.44C367.262 130.013 367.676 130.453 368.182 130.76C368.702 131.053 369.249 131.2 369.822 131.2C370.409 131.2 370.956 131.053 371.462 130.76C371.969 130.467 372.376 130.04 372.682 129.48C373.002 128.907 373.162 128.24 373.162 127.48ZM391.797 121.8C392.664 121.8 393.437 121.98 394.117 122.34C394.81 122.7 395.35 123.233 395.737 123.94C396.137 124.647 396.337 125.5 396.337 126.5V133H394.077V126.84C394.077 125.853 393.83 125.1 393.337 124.58C392.844 124.047 392.17 123.78 391.317 123.78C390.464 123.78 389.784 124.047 389.277 124.58C388.784 125.1 388.537 125.853 388.537 126.84V133H386.277V126.84C386.277 125.853 386.03 125.1 385.537 124.58C385.044 124.047 384.37 123.78 383.517 123.78C382.664 123.78 381.984 124.047 381.477 124.58C380.984 125.1 380.737 125.853 380.737 126.84V133H378.457V121.98H380.737V123.24C381.11 122.787 381.584 122.433 382.157 122.18C382.73 121.927 383.344 121.8 383.997 121.8C384.877 121.8 385.664 121.987 386.357 122.36C387.05 122.733 387.584 123.273 387.957 123.98C388.29 123.313 388.81 122.787 389.517 122.4C390.224 122 390.984 121.8 391.797 121.8ZM409.218 121.98V133H406.938V131.7C406.578 132.153 406.105 132.513 405.518 132.78C404.945 133.033 404.332 133.16 403.678 133.16C402.812 133.16 402.032 132.98 401.338 132.62C400.658 132.26 400.118 131.727 399.718 131.02C399.332 130.313 399.138 129.46 399.138 128.46V121.98H401.398V128.12C401.398 129.107 401.645 129.867 402.138 130.4C402.632 130.92 403.305 131.18 404.158 131.18C405.012 131.18 405.685 130.92 406.178 130.4C406.685 129.867 406.938 129.107 406.938 128.12V121.98H409.218ZM419.702 123.62C420.089 123.087 420.615 122.653 421.282 122.32C421.962 121.973 422.715 121.8 423.542 121.8C424.515 121.8 425.395 122.033 426.182 122.5C426.969 122.967 427.589 123.633 428.042 124.5C428.495 125.353 428.722 126.333 428.722 127.44C428.722 128.547 428.495 129.54 428.042 130.42C427.589 131.287 426.962 131.967 426.162 132.46C425.375 132.94 424.502 133.18 423.542 133.18C422.689 133.18 421.929 133.013 421.262 132.68C420.609 132.347 420.089 131.92 419.702 131.4V133H417.422V118.2H419.702V123.62ZM426.402 127.44C426.402 126.68 426.242 126.027 425.922 125.48C425.615 124.92 425.202 124.5 424.682 124.22C424.175 123.927 423.629 123.78 423.042 123.78C422.469 123.78 421.922 123.927 421.402 124.22C420.895 124.513 420.482 124.94 420.162 125.5C419.855 126.06 419.702 126.72 419.702 127.48C419.702 128.24 419.855 128.907 420.162 129.48C420.482 130.04 420.895 130.467 421.402 130.76C421.922 131.053 422.469 131.2 423.042 131.2C423.629 131.2 424.175 131.053 424.682 130.76C425.202 130.453 425.615 130.013 425.922 129.44C426.242 128.867 426.402 128.2 426.402 127.44ZM441.077 127.22C441.077 127.633 441.05 128.007 440.997 128.34H432.577C432.643 129.22 432.97 129.927 433.557 130.46C434.143 130.993 434.863 131.26 435.717 131.26C436.943 131.26 437.81 130.747 438.317 129.72H440.777C440.443 130.733 439.837 131.567 438.957 132.22C438.09 132.86 437.01 133.18 435.717 133.18C434.663 133.18 433.717 132.947 432.877 132.48C432.05 132 431.397 131.333 430.917 130.48C430.45 129.613 430.217 128.613 430.217 127.48C430.217 126.347 430.443 125.353 430.897 124.5C431.363 123.633 432.01 122.967 432.837 122.5C433.677 122.033 434.637 121.8 435.717 121.8C436.757 121.8 437.683 122.027 438.497 122.48C439.31 122.933 439.943 123.573 440.397 124.4C440.85 125.213 441.077 126.153 441.077 127.22ZM438.697 126.5C438.683 125.66 438.383 124.987 437.797 124.48C437.21 123.973 436.483 123.72 435.617 123.72C434.83 123.72 434.157 123.973 433.597 124.48C433.037 124.973 432.703 125.647 432.597 126.5H438.697ZM445.6 118.2V133H443.32V118.2H445.6ZM458.574 121.98V133H456.294V131.7C455.934 132.153 455.46 132.513 454.874 132.78C454.3 133.033 453.687 133.16 453.034 133.16C452.167 133.16 451.387 132.98 450.694 132.62C450.014 132.26 449.474 131.727 449.074 131.02C448.687 130.313 448.494 129.46 448.494 128.46V121.98H450.754V128.12C450.754 129.107 451 129.867 451.494 130.4C451.987 130.92 452.66 131.18 453.514 131.18C454.367 131.18 455.04 130.92 455.534 130.4C456.04 129.867 456.294 129.107 456.294 128.12V121.98H458.574ZM474.922 121.8C475.789 121.8 476.562 121.98 477.242 122.34C477.935 122.7 478.475 123.233 478.862 123.94C479.262 124.647 479.462 125.5 479.462 126.5V133H477.202V126.84C477.202 125.853 476.955 125.1 476.462 124.58C475.969 124.047 475.295 123.78 474.442 123.78C473.589 123.78 472.909 124.047 472.402 124.58C471.909 125.1 471.662 125.853 471.662 126.84V133H469.402V126.84C469.402 125.853 469.155 125.1 468.662 124.58C468.169 124.047 467.495 123.78 466.642 123.78C465.789 123.78 465.109 124.047 464.602 124.58C464.109 125.1 463.862 125.853 463.862 126.84V133H461.582V121.98H463.862V123.24C464.235 122.787 464.709 122.433 465.282 122.18C465.855 121.927 466.469 121.8 467.122 121.8C468.002 121.8 468.789 121.987 469.482 122.36C470.175 122.733 470.709 123.273 471.082 123.98C471.415 123.313 471.935 122.787 472.642 122.4C473.349 122 474.109 121.8 474.922 121.8ZM489.839 123.6C490.225 123.093 490.752 122.667 491.419 122.32C492.085 121.973 492.839 121.8 493.679 121.8C494.639 121.8 495.512 122.04 496.299 122.52C497.099 122.987 497.725 123.647 498.179 124.5C498.632 125.353 498.859 126.333 498.859 127.44C498.859 128.547 498.632 129.54 498.179 130.42C497.725 131.287 497.099 131.967 496.299 132.46C495.512 132.94 494.639 133.18 493.679 133.18C492.839 133.18 492.092 133.013 491.439 132.68C490.785 132.333 490.252 131.907 489.839 131.4V138.24H487.559V121.98H489.839V123.6ZM496.539 127.44C496.539 126.68 496.379 126.027 496.059 125.48C495.752 124.92 495.339 124.5 494.819 124.22C494.312 123.927 493.765 123.78 493.179 123.78C492.605 123.78 492.059 123.927 491.539 124.22C491.032 124.513 490.619 124.94 490.299 125.5C489.992 126.06 489.839 126.72 489.839 127.48C489.839 128.24 489.992 128.907 490.299 129.48C490.619 130.04 491.032 130.467 491.539 130.76C492.059 131.053 492.605 131.2 493.179 131.2C493.765 131.2 494.312 131.053 494.819 130.76C495.339 130.453 495.752 130.013 496.059 129.44C496.379 128.867 496.539 128.2 496.539 127.44ZM511.093 121.98V133H508.813V131.7C508.453 132.153 507.98 132.513 507.393 132.78C506.82 133.033 506.207 133.16 505.553 133.16C504.687 133.16 503.907 132.98 503.213 132.62C502.533 132.26 501.993 131.727 501.593 131.02C501.207 130.313 501.013 129.46 501.013 128.46V121.98H503.273V128.12C503.273 129.107 503.52 129.867 504.013 130.4C504.507 130.92 505.18 131.18 506.033 131.18C506.887 131.18 507.56 130.92 508.053 130.4C508.56 129.867 508.813 129.107 508.813 128.12V121.98H511.093ZM519.662 121.8C520.528 121.8 521.302 121.98 521.982 122.34C522.675 122.7 523.215 123.233 523.602 123.94C523.988 124.647 524.182 125.5 524.182 126.5V133H521.922V126.84C521.922 125.853 521.675 125.1 521.182 124.58C520.688 124.047 520.015 123.78 519.162 123.78C518.308 123.78 517.628 124.047 517.122 124.58C516.628 125.1 516.382 125.853 516.382 126.84V133H514.102V121.98H516.382V123.24C516.755 122.787 517.228 122.433 517.802 122.18C518.388 121.927 519.008 121.8 519.662 121.8ZM537.01 121.98L530.25 138.18H527.89L530.13 132.82L525.79 121.98H528.33L531.43 130.38L534.65 121.98H537.01ZM537.97 127.44C537.97 126.333 538.197 125.353 538.65 124.5C539.117 123.647 539.744 122.987 540.53 122.52C541.33 122.04 542.21 121.8 543.17 121.8C544.037 121.8 544.79 121.973 545.43 122.32C546.084 122.653 546.604 123.073 546.99 123.58V121.98H549.29V133H546.99V131.36C546.604 131.88 546.077 132.313 545.41 132.66C544.744 133.007 543.984 133.18 543.13 133.18C542.184 133.18 541.317 132.94 540.53 132.46C539.744 131.967 539.117 131.287 538.65 130.42C538.197 129.54 537.97 128.547 537.97 127.44ZM546.99 127.48C546.99 126.72 546.83 126.06 546.51 125.5C546.204 124.94 545.797 124.513 545.29 124.22C544.784 123.927 544.237 123.78 543.65 123.78C543.064 123.78 542.517 123.927 542.01 124.22C541.504 124.5 541.09 124.92 540.77 125.48C540.464 126.027 540.31 126.68 540.31 127.44C540.31 128.2 540.464 128.867 540.77 129.44C541.09 130.013 541.504 130.453 542.01 130.76C542.53 131.053 543.077 131.2 543.65 131.2C544.237 131.2 544.784 131.053 545.29 130.76C545.797 130.467 546.204 130.04 546.51 129.48C546.83 128.907 546.99 128.24 546.99 127.48ZM294.78 153.58C295.113 153.02 295.553 152.587 296.1 152.28C296.66 151.96 297.32 151.8 298.08 151.8V154.16H297.5C296.607 154.16 295.927 154.387 295.46 154.84C295.007 155.293 294.78 156.08 294.78 157.2V163H292.5V151.98H294.78V153.58ZM310.276 157.22C310.276 157.633 310.249 158.007 310.196 158.34H301.776C301.842 159.22 302.169 159.927 302.756 160.46C303.342 160.993 304.062 161.26 304.916 161.26C306.142 161.26 307.009 160.747 307.516 159.72H309.976C309.642 160.733 309.036 161.567 308.156 162.22C307.289 162.86 306.209 163.18 304.916 163.18C303.862 163.18 302.916 162.947 302.076 162.48C301.249 162 300.596 161.333 300.116 160.48C299.649 159.613 299.416 158.613 299.416 157.48C299.416 156.347 299.642 155.353 300.096 154.5C300.562 153.633 301.209 152.967 302.036 152.5C302.876 152.033 303.836 151.8 304.916 151.8C305.956 151.8 306.882 152.027 307.696 152.48C308.509 152.933 309.142 153.573 309.596 154.4C310.049 155.213 310.276 156.153 310.276 157.22ZM307.896 156.5C307.882 155.66 307.582 154.987 306.996 154.48C306.409 153.973 305.682 153.72 304.816 153.72C304.029 153.72 303.356 153.973 302.796 154.48C302.236 154.973 301.902 155.647 301.796 156.5H307.896ZM318.08 151.8C318.946 151.8 319.72 151.98 320.4 152.34C321.093 152.7 321.633 153.233 322.02 153.94C322.406 154.647 322.6 155.5 322.6 156.5V163H320.34V156.84C320.34 155.853 320.093 155.1 319.6 154.58C319.106 154.047 318.433 153.78 317.58 153.78C316.726 153.78 316.046 154.047 315.54 154.58C315.046 155.1 314.8 155.853 314.8 156.84V163H312.52V151.98H314.8V153.24C315.173 152.787 315.646 152.433 316.22 152.18C316.806 151.927 317.426 151.8 318.08 151.8ZM324.748 157.48C324.748 156.347 324.974 155.353 325.428 154.5C325.894 153.633 326.534 152.967 327.348 152.5C328.161 152.033 329.094 151.8 330.148 151.8C331.481 151.8 332.581 152.12 333.448 152.76C334.328 153.387 334.921 154.287 335.228 155.46H332.768C332.568 154.913 332.248 154.487 331.808 154.18C331.368 153.873 330.814 153.72 330.148 153.72C329.214 153.72 328.468 154.053 327.908 154.72C327.361 155.373 327.088 156.293 327.088 157.48C327.088 158.667 327.361 159.593 327.908 160.26C328.468 160.927 329.214 161.26 330.148 161.26C331.468 161.26 332.341 160.68 332.768 159.52H335.228C334.908 160.64 334.308 161.533 333.428 162.2C332.548 162.853 331.454 163.18 330.148 163.18C329.094 163.18 328.161 162.947 327.348 162.48C326.534 162 325.894 161.333 325.428 160.48C324.974 159.613 324.748 158.613 324.748 157.48ZM336.74 157.44C336.74 156.333 336.967 155.353 337.42 154.5C337.887 153.647 338.513 152.987 339.3 152.52C340.1 152.04 340.98 151.8 341.94 151.8C342.807 151.8 343.56 151.973 344.2 152.32C344.853 152.653 345.373 153.073 345.76 153.58V151.98H348.06V163H345.76V161.36C345.373 161.88 344.847 162.313 344.18 162.66C343.513 163.007 342.753 163.18 341.9 163.18C340.953 163.18 340.087 162.94 339.3 162.46C338.513 161.967 337.887 161.287 337.42 160.42C336.967 159.54 336.74 158.547 336.74 157.44ZM345.76 157.48C345.76 156.72 345.6 156.06 345.28 155.5C344.973 154.94 344.567 154.513 344.06 154.22C343.553 153.927 343.007 153.78 342.42 153.78C341.833 153.78 341.287 153.927 340.78 154.22C340.273 154.5 339.86 154.92 339.54 155.48C339.233 156.027 339.08 156.68 339.08 157.44C339.08 158.2 339.233 158.867 339.54 159.44C339.86 160.013 340.273 160.453 340.78 160.76C341.3 161.053 341.847 161.2 342.42 161.2C343.007 161.2 343.553 161.053 344.06 160.76C344.567 160.467 344.973 160.04 345.28 159.48C345.6 158.907 345.76 158.24 345.76 157.48ZM356.615 151.8C357.481 151.8 358.255 151.98 358.935 152.34C359.628 152.7 360.168 153.233 360.555 153.94C360.941 154.647 361.135 155.5 361.135 156.5V163H358.875V156.84C358.875 155.853 358.628 155.1 358.135 154.58C357.641 154.047 356.968 153.78 356.115 153.78C355.261 153.78 354.581 154.047 354.075 154.58C353.581 155.1 353.335 155.853 353.335 156.84V163H351.055V151.98H353.335V153.24C353.708 152.787 354.181 152.433 354.755 152.18C355.341 151.927 355.961 151.8 356.615 151.8ZM363.283 157.44C363.283 156.333 363.51 155.353 363.963 154.5C364.43 153.647 365.056 152.987 365.843 152.52C366.643 152.04 367.523 151.8 368.483 151.8C369.35 151.8 370.103 151.973 370.743 152.32C371.396 152.653 371.916 153.073 372.303 153.58V151.98H374.603V163H372.303V161.36C371.916 161.88 371.39 162.313 370.723 162.66C370.056 163.007 369.296 163.18 368.443 163.18C367.496 163.18 366.63 162.94 365.843 162.46C365.056 161.967 364.43 161.287 363.963 160.42C363.51 159.54 363.283 158.547 363.283 157.44ZM372.303 157.48C372.303 156.72 372.143 156.06 371.823 155.5C371.516 154.94 371.11 154.513 370.603 154.22C370.096 153.927 369.55 153.78 368.963 153.78C368.376 153.78 367.83 153.927 367.323 154.22C366.816 154.5 366.403 154.92 366.083 155.48C365.776 156.027 365.623 156.68 365.623 157.44C365.623 158.2 365.776 158.867 366.083 159.44C366.403 160.013 366.816 160.453 367.323 160.76C367.843 161.053 368.39 161.2 368.963 161.2C369.55 161.2 370.096 161.053 370.603 160.76C371.11 160.467 371.516 160.04 371.823 159.48C372.143 158.907 372.303 158.24 372.303 157.48ZM385.453 153.84V159.94C385.453 160.353 385.546 160.653 385.733 160.84C385.933 161.013 386.266 161.1 386.733 161.1H388.133V163H386.333C385.306 163 384.52 162.76 383.973 162.28C383.426 161.8 383.153 161.02 383.153 159.94V153.84H381.853V151.98H383.153V149.24H385.453V151.98H388.133V153.84H385.453ZM389.474 157.44C389.474 156.333 389.701 155.353 390.154 154.5C390.621 153.647 391.248 152.987 392.034 152.52C392.834 152.04 393.714 151.8 394.674 151.8C395.541 151.8 396.294 151.973 396.934 152.32C397.588 152.653 398.108 153.073 398.494 153.58V151.98H400.794V163H398.494V161.36C398.108 161.88 397.581 162.313 396.914 162.66C396.248 163.007 395.488 163.18 394.634 163.18C393.688 163.18 392.821 162.94 392.034 162.46C391.248 161.967 390.621 161.287 390.154 160.42C389.701 159.54 389.474 158.547 389.474 157.44ZM398.494 157.48C398.494 156.72 398.334 156.06 398.014 155.5C397.708 154.94 397.301 154.513 396.794 154.22C396.288 153.927 395.741 153.78 395.154 153.78C394.568 153.78 394.021 153.927 393.514 154.22C393.008 154.5 392.594 154.92 392.274 155.48C391.968 156.027 391.814 156.68 391.814 157.44C391.814 158.2 391.968 158.867 392.274 159.44C392.594 160.013 393.008 160.453 393.514 160.76C394.034 161.053 394.581 161.2 395.154 161.2C395.741 161.2 396.288 161.053 396.794 160.76C397.301 160.467 397.708 160.04 398.014 159.48C398.334 158.907 398.494 158.24 398.494 157.48ZM409.349 151.8C410.216 151.8 410.989 151.98 411.669 152.34C412.362 152.7 412.902 153.233 413.289 153.94C413.676 154.647 413.869 155.5 413.869 156.5V163H411.609V156.84C411.609 155.853 411.362 155.1 410.869 154.58C410.376 154.047 409.702 153.78 408.849 153.78C407.996 153.78 407.316 154.047 406.809 154.58C406.316 155.1 406.069 155.853 406.069 156.84V163H403.789V151.98H406.069V153.24C406.442 152.787 406.916 152.433 407.489 152.18C408.076 151.927 408.696 151.8 409.349 151.8ZM416.017 157.44C416.017 156.333 416.244 155.353 416.697 154.5C417.164 153.647 417.791 152.987 418.577 152.52C419.377 152.04 420.257 151.8 421.217 151.8C422.084 151.8 422.837 151.973 423.477 152.32C424.131 152.653 424.651 153.073 425.037 153.58V151.98H427.337V163H425.037V161.36C424.651 161.88 424.124 162.313 423.457 162.66C422.791 163.007 422.031 163.18 421.177 163.18C420.231 163.18 419.364 162.94 418.577 162.46C417.791 161.967 417.164 161.287 416.697 160.42C416.244 159.54 416.017 158.547 416.017 157.44ZM425.037 157.48C425.037 156.72 424.877 156.06 424.557 155.5C424.251 154.94 423.844 154.513 423.337 154.22C422.831 153.927 422.284 153.78 421.697 153.78C421.111 153.78 420.564 153.927 420.057 154.22C419.551 154.5 419.137 154.92 418.817 155.48C418.511 156.027 418.357 156.68 418.357 157.44C418.357 158.2 418.511 158.867 418.817 159.44C419.137 160.013 419.551 160.453 420.057 160.76C420.577 161.053 421.124 161.2 421.697 161.2C422.284 161.2 422.831 161.053 423.337 160.76C423.844 160.467 424.251 160.04 424.557 159.48C424.877 158.907 425.037 158.24 425.037 157.48ZM443.672 151.8C444.539 151.8 445.312 151.98 445.992 152.34C446.685 152.7 447.225 153.233 447.612 153.94C448.012 154.647 448.212 155.5 448.212 156.5V163H445.952V156.84C445.952 155.853 445.705 155.1 445.212 154.58C444.719 154.047 444.045 153.78 443.192 153.78C442.339 153.78 441.659 154.047 441.152 154.58C440.659 155.1 440.412 155.853 440.412 156.84V163H438.152V156.84C438.152 155.853 437.905 155.1 437.412 154.58C436.919 154.047 436.245 153.78 435.392 153.78C434.539 153.78 433.859 154.047 433.352 154.58C432.859 155.1 432.612 155.853 432.612 156.84V163H430.332V151.98H432.612V153.24C432.985 152.787 433.459 152.433 434.032 152.18C434.605 151.927 435.219 151.8 435.872 151.8C436.752 151.8 437.539 151.987 438.232 152.36C438.925 152.733 439.459 153.273 439.832 153.98C440.165 153.313 440.685 152.787 441.392 152.4C442.099 152 442.859 151.8 443.672 151.8ZM457.229 163.14C456.815 163.14 456.469 163 456.189 162.72C455.909 162.44 455.769 162.093 455.769 161.68C455.769 161.267 455.909 160.92 456.189 160.64C456.469 160.36 456.815 160.22 457.229 160.22C457.629 160.22 457.969 160.36 458.249 160.64C458.529 160.92 458.669 161.267 458.669 161.68C458.669 162.093 458.529 162.44 458.249 162.72C457.969 163 457.629 163.14 457.229 163.14ZM457.229 154.74C456.815 154.74 456.469 154.6 456.189 154.32C455.909 154.04 455.769 153.693 455.769 153.28C455.769 152.867 455.909 152.52 456.189 152.24C456.469 151.96 456.815 151.82 457.229 151.82C457.629 151.82 457.969 151.96 458.249 152.24C458.529 152.52 458.669 152.867 458.669 153.28C458.669 153.693 458.529 154.04 458.249 154.32C457.969 154.6 457.629 154.74 457.229 154.74ZM466.251 166.72C464.944 165.467 463.938 163.873 463.231 161.94C462.538 160.007 462.191 157.933 462.191 155.72C462.191 153.453 462.564 151.313 463.311 149.3C464.071 147.287 465.184 145.627 466.651 144.32H469.011V144.54C467.478 145.953 466.324 147.647 465.551 149.62C464.778 151.593 464.391 153.627 464.391 155.72C464.391 157.733 464.751 159.68 465.471 161.56C466.191 163.44 467.238 165.087 468.611 166.5V166.72H466.251Z" fill="white"/>
<g filter="url(#filter1_d_398_79)">
<mask id="mask0_398_79" style="mask-type:luminance" maskUnits="userSpaceOnUse" x="16" y="213" width="242" height="72">
<path d="M16.4121 213.673H257.472V284.356H16.4121V213.673Z" fill="white"/>
</mask>
<g mask="url(#mask0_398_79)">
<path fill-rule="evenodd" clip-rule="evenodd" d="M77.2652 214.169C52.2549 214.169 29.7623 229.665 20.4728 253.296L18.4025 258.556C13.514 271.001 22.5164 284.539 35.6927 284.539H238.306C251.482 284.539 260.485 271.001 255.596 258.556L253.526 253.296C244.236 229.665 221.744 214.169 196.733 214.169H77.2652Z" fill="#71817C"/>
</g>
<path fill-rule="evenodd" clip-rule="evenodd" d="M176.891 214.169H97.1055V222.284C97.1055 224.438 97.9469 226.504 99.4429 228.027L135.5 237.856C138.612 241.03 138.388 241.03 141.5 237.856L174.554 228.027C176.05 226.504 176.891 224.438 176.891 222.284V214.169Z" fill="#45474B"/>
<path fill-rule="evenodd" clip-rule="evenodd" d="M73.1179 99.3164C68.7102 99.3164 65.1374 102.946 65.1374 107.431C65.1374 111.971 65.518 116.763 66.2393 121.683C62.426 125.564 59.8682 130.811 59.8682 136.874C59.8682 147.809 67.8287 155.727 77.2184 158.554C82.7748 170.842 90.2144 182.58 99.3704 191.626C109.521 201.657 122.237 208.78 137.003 208.78C151.762 208.78 164.477 201.657 174.628 191.626C183.784 182.586 191.224 170.842 196.78 158.554C206.17 155.727 214.13 147.809 214.13 136.874C214.13 130.811 211.573 125.564 207.753 121.683C208.481 116.763 208.861 111.971 208.861 107.431C208.861 102.946 205.288 99.3164 200.881 99.3164H73.1179Z" fill="#FFEBCE"/>
<path fill-rule="evenodd" clip-rule="evenodd" d="M141 12.8565C138.756 11.7147 130.751 11.7144 128.5 12.8562L16.4064 94.7562C13.2209 96.3805 11.4778 99.9623 12.139 103.524C12.8001 107.092 15.7052 109.776 19.2514 110.109L136.275 120.936C136.756 120.977 137.244 120.977 137.725 120.936L254.749 110.109C258.295 109.776 261.2 107.092 261.861 103.524C262.522 99.9623 260.779 96.3805 257.594 94.7562L141 12.8565Z" fill="#45474B"/>
</g>
<mask id="mask1_398_79" style="mask-type:luminance" maskUnits="userSpaceOnUse" x="52" y="240" width="30" height="30">
<path d="M52 251.719C52 245.247 57.2466 240 63.7187 240H70.2812C76.7533 240 82 245.247 82 251.719V258.281C82 264.753 76.7533 270 70.2812 270H63.7187C57.2466 270 52 264.753 52 258.281V251.719Z" fill="white"/>
</mask>
<g mask="url(#mask1_398_79)">
<path d="M52 251.719C52 245.247 57.2466 240 63.7187 240H70.2812C76.7533 240 82 245.247 82 251.719V258.281C82 264.753 76.7533 270 70.2812 270H63.7187C57.2466 270 52 264.753 52 258.281V251.719Z" fill="#353933"/>
<path d="M70.3964 240.115H63.834C57.3619 240.115 52.1152 245.362 52.1152 251.834V258.396C52.1152 264.869 57.3619 270.115 63.834 270.115H70.3964C76.8685 270.115 82.1152 264.869 82.1152 258.396V251.834C82.1152 245.362 76.8685 240.115 70.3964 240.115Z" fill="#353933"/>
<path d="M52.1152 251.834C52.1152 245.362 57.3619 240.115 63.834 240.115H82.1152V258.396C82.1152 264.868 76.8685 270.115 70.3964 270.115H63.834C57.3619 270.115 52.1152 264.868 52.1152 258.396V251.834Z" fill="#45474B"/>
<g filter="url(#filter2_i_398_79)">
<path d="M73.3368 262.744C69.9045 266.176 64.3396 266.176 60.9072 262.744C57.4749 259.312 57.4749 253.747 60.9072 250.314C64.3396 246.882 69.9045 246.882 73.3368 250.314C76.7691 253.747 76.7691 259.312 73.3368 262.744Z" fill="white"/>
</g>
<g filter="url(#filter3_d_398_79)">
<path d="M66.5916 252.886L66.8831 252.411L67.166 252.753C67.3575 255.22 67.6128 260.185 67.1022 260.304C66.5916 260.423 66.549 255.408 66.5916 252.886Z" fill="#6C9F52" stroke="#6C9F52"/>
<path d="M60.1514 245.943C60.7751 248.224 59.4135 252.136 66.5439 253.09C69.6328 251.402 63.5692 247.622 60.1514 245.943Z" fill="#6C9F52" stroke="#6C9F52"/>
<path d="M76.682 248.161C74.1408 248.112 71.0484 245.742 66.4082 252.18C66.4406 255.555 73.2709 250.907 76.682 248.161Z" fill="#6C9F52" stroke="#6C9F52"/>
</g>
<g filter="url(#filter4_i_398_79)">
<path d="M57.2764 247.313C58.3119 247.313 59.1514 246.474 59.1514 245.438C59.1514 244.403 58.3119 243.563 57.2764 243.563C56.2408 243.563 55.4014 244.403 55.4014 245.438C55.4014 246.474 56.2408 247.313 57.2764 247.313Z" fill="white"/>
</g>
<path d="M67.1152 270.818C73.5873 270.818 78.8339 268.195 78.8339 264.959C78.8339 261.723 73.5873 259.1 67.1152 259.1C60.6431 259.1 55.3965 261.723 55.3965 264.959C55.3965 268.195 60.6431 270.818 67.1152 270.818Z" fill="#45474B"/>
<g filter="url(#filter5_i_398_79)">
<path d="M61.325 263.857C61.325 263.957 61.3016 264.048 61.2547 264.131C61.2094 264.212 61.1398 264.278 61.0461 264.328C60.9539 264.376 60.8406 264.401 60.7062 264.401H60.4789V264.958H60.0195V263.306H60.7062C60.8391 263.306 60.9516 263.329 61.0437 263.376C61.1375 263.423 61.2078 263.488 61.2547 263.571C61.3016 263.654 61.325 263.749 61.325 263.857ZM60.6617 264.035C60.7914 264.035 60.8562 263.976 60.8562 263.857C60.8562 263.737 60.7914 263.676 60.6617 263.676H60.4789V264.035H60.6617ZM62.5806 264.958L62.2525 264.349H62.2033V264.958H61.7439V263.306H62.4681C62.601 263.306 62.7135 263.329 62.8056 263.376C62.8978 263.422 62.9674 263.485 63.0142 263.566C63.0611 263.646 63.0845 263.736 63.0845 263.836C63.0845 263.948 63.0533 264.047 62.9908 264.133C62.9299 264.218 62.84 264.278 62.7213 264.314L63.0939 264.958H62.5806ZM62.2033 264.035H62.4306C62.4931 264.035 62.54 264.02 62.5713 263.99C62.6025 263.961 62.6181 263.918 62.6181 263.862C62.6181 263.808 62.6017 263.767 62.5689 263.737C62.5377 263.706 62.4916 263.69 62.4306 263.69H62.2033V264.035ZM63.9872 263.674V263.944H64.5146V264.293H63.9872V264.59H64.5849V264.958H63.5278V263.306H64.5849V263.674H63.9872ZM64.99 264.129C64.99 263.966 65.0236 263.822 65.0908 263.695C65.1595 263.567 65.2564 263.468 65.3814 263.397C65.5064 263.326 65.6501 263.29 65.8126 263.29C66.0189 263.29 66.1923 263.345 66.3329 263.456C66.4736 263.566 66.5642 263.715 66.6048 263.904H66.1103C66.0806 263.841 66.0392 263.794 65.9861 263.761C65.9345 263.728 65.8743 263.712 65.8056 263.712C65.6993 263.712 65.6142 263.75 65.5501 263.826C65.4876 263.901 65.4564 264.002 65.4564 264.129C65.4564 264.257 65.4876 264.359 65.5501 264.436C65.6142 264.511 65.6993 264.548 65.8056 264.548C65.8743 264.548 65.9345 264.532 65.9861 264.499C66.0392 264.466 66.0806 264.419 66.1103 264.356H66.6048C66.5642 264.545 66.4736 264.695 66.3329 264.806C66.1923 264.916 66.0189 264.97 65.8126 264.97C65.6501 264.97 65.5064 264.935 65.3814 264.865C65.2564 264.793 65.1595 264.694 65.0908 264.567C65.0236 264.439 64.99 264.293 64.99 264.129ZM67.8489 264.975C67.6942 264.975 67.552 264.939 67.4223 264.867C67.2927 264.794 67.1895 264.693 67.113 264.565C67.038 264.435 67.0005 264.289 67.0005 264.126C67.0005 263.964 67.038 263.819 67.113 263.69C67.1895 263.561 67.2927 263.46 67.4223 263.388C67.552 263.316 67.6942 263.28 67.8489 263.28C68.0052 263.28 68.1473 263.316 68.2755 263.388C68.4051 263.46 68.5075 263.561 68.5825 263.69C68.6575 263.819 68.695 263.964 68.695 264.126C68.695 264.289 68.6575 264.435 68.5825 264.565C68.5075 264.693 68.4051 264.794 68.2755 264.867C68.1458 264.939 68.0036 264.975 67.8489 264.975ZM67.8489 264.548C67.9661 264.548 68.0583 264.51 68.1255 264.433C68.1942 264.357 68.2286 264.255 68.2286 264.126C68.2286 263.995 68.1942 263.892 68.1255 263.817C68.0583 263.74 67.9661 263.702 67.8489 263.702C67.7301 263.702 67.6372 263.74 67.57 263.817C67.5028 263.892 67.4692 263.995 67.4692 264.126C67.4692 264.256 67.5028 264.359 67.57 264.436C67.6372 264.511 67.7301 264.548 67.8489 264.548ZM70.6663 264.958H70.207L69.5953 264.035V264.958H69.1359V263.306H69.5953L70.207 264.241V263.306H70.6663V264.958ZM71.6218 263.674V263.944H72.1491V264.293H71.6218V264.59H72.2194V264.958H71.1624V263.306H72.2194V263.674H71.6218ZM74.2113 264.958H73.7519L73.1402 264.035V264.958H72.6808V263.306H73.1402L73.7519 264.241V263.306H74.2113V264.958Z" fill="white"/>
</g>
</g>
<defs>
<filter id="filter0_d_398_79" x="264" y="90" width="315" height="102" filterUnits="userSpaceOnUse" color-interpolation-filters="sRGB">
<feFlood flood-opacity="0" result="BackgroundImageFix"/>
<feColorMatrix in="SourceAlpha" type="matrix" values="0 0 0 0 0 0 0 0 0 0 0 0 0 0 0 0 0 0 127 0" result="hardAlpha"/>
<feOffset/>
<feGaussianBlur stdDeviation="6"/>
<feComposite in2="hardAlpha" operator="out"/>
<feColorMatrix type="matrix" values="0 0 0 0 0 0 0 0 0 0 0 0 0 0 0 0 0 0 0.25 0"/>
<feBlend mode="normal" in2="BackgroundImageFix" result="effect1_dropShadow_398_79"/>
<feBlend mode="normal" in="SourceGraphic" in2="effect1_dropShadow_398_79" result="shape"/>
</filter>
<filter id="filter1_d_398_79" x="0" y="0" width="274" height="296.355" filterUnits="userSpaceOnUse" color-interpolation-filters="sRGB">
<feFlood flood-opacity="0" result="BackgroundImageFix"/>
<feColorMatrix in="SourceAlpha" type="matrix" values="0 0 0 0 0 0 0 0 0 0 0 0 0 0 0 0 0 0 127 0" result="hardAlpha"/>
<feOffset/>
<feGaussianBlur stdDeviation="6"/>
<feComposite in2="hardAlpha" operator="out"/>
<feColorMatrix type="matrix" values="0 0 0 0 0 0 0 0 0 0 0 0 0 0 0 0 0 0 0.25 0"/>
<feBlend mode="normal" in2="BackgroundImageFix" result="effect1_dropShadow_398_79"/>
<feBlend mode="normal" in="SourceGraphic" in2="effect1_dropShadow_398_79" result="shape"/>
</filter>
<filter id="filter2_i_398_79" x="58.333" y="247.74" width="17.578" height="21.5781" filterUnits="userSpaceOnUse" color-interpolation-filters="sRGB">
<feFlood flood-opacity="0" result="BackgroundImageFix"/>
<feBlend mode="normal" in="SourceGraphic" in2="BackgroundImageFix" result="shape"/>
<feColorMatrix in="SourceAlpha" type="matrix" values="0 0 0 0 0 0 0 0 0 0 0 0 0 0 0 0 0 0 127 0" result="hardAlpha"/>
<feOffset dy="4"/>
<feGaussianBlur stdDeviation="2"/>
<feComposite in2="hardAlpha" operator="arithmetic" k2="-1" k3="1"/>
<feColorMatrix type="matrix" values="0 0 0 0 0 0 0 0 0 0 0 0 0 0 0 0 0 0 0.25 0"/>
<feBlend mode="normal" in2="shape" result="effect1_innerShadow_398_79"/>
</filter>
<filter id="filter3_d_398_79" x="55.3766" y="245.006" width="26.6909" height="23.8008" filterUnits="userSpaceOnUse" color-interpolation-filters="sRGB">
<feFlood flood-opacity="0" result="BackgroundImageFix"/>
<feColorMatrix in="SourceAlpha" type="matrix" values="0 0 0 0 0 0 0 0 0 0 0 0 0 0 0 0 0 0 127 0" result="hardAlpha"/>
<feOffset dy="4"/>
<feGaussianBlur stdDeviation="2"/>
<feComposite in2="hardAlpha" operator="out"/>
<feColorMatrix type="matrix" values="0 0 0 0 0 0 0 0 0 0 0 0 0 0 0 0 0 0 0.25 0"/>
<feBlend mode="normal" in2="BackgroundImageFix" result="effect1_dropShadow_398_79"/>
<feBlend mode="normal" in="SourceGraphic" in2="effect1_dropShadow_398_79" result="shape"/>
</filter>
<filter id="filter4_i_398_79" x="55.4014" y="243.563" width="3.75" height="7.75" filterUnits="userSpaceOnUse" color-interpolation-filters="sRGB">
<feFlood flood-opacity="0" result="BackgroundImageFix"/>
<feBlend mode="normal" in="SourceGraphic" in2="BackgroundImageFix" result="shape"/>
<feColorMatrix in="SourceAlpha" type="matrix" values="0 0 0 0 0 0 0 0 0 0 0 0 0 0 0 0 0 0 127 0" result="hardAlpha"/>
<feOffset dy="4"/>
<feGaussianBlur stdDeviation="2"/>
<feComposite in2="hardAlpha" operator="arithmetic" k2="-1" k3="1"/>
<feColorMatrix type="matrix" values="0 0 0 0 0 0 0 0 0 0 0 0 0 0 0 0 0 0 0.25 0"/>
<feBlend mode="normal" in2="shape" result="effect1_innerShadow_398_79"/>
</filter>
<filter id="filter5_i_398_79" x="60.0195" y="263.28" width="14.1918" height="5.69434" filterUnits="userSpaceOnUse" color-interpolation-filters="sRGB">
<feFlood flood-opacity="0" result="BackgroundImageFix"/>
<feBlend mode="normal" in="SourceGraphic" in2="BackgroundImageFix" result="shape"/>
<feColorMatrix in="SourceAlpha" type="matrix" values="0 0 0 0 0 0 0 0 0 0 0 0 0 0 0 0 0 0 127 0" result="hardAlpha"/>
<feOffset dy="4"/>
<feGaussianBlur stdDeviation="2"/>
<feComposite in2="hardAlpha" operator="arithmetic" k2="-1" k3="1"/>
<feColorMatrix type="matrix" values="0 0 0 0 0 0 0 0 0 0 0 0 0 0 0 0 0 0 0.25 0"/>
<feBlend mode="normal" in2="shape" result="effect1_innerShadow_398_79"/>
</filter>
</defs>
</svg>
