<svg width="25" height="25" viewBox="0 0 25 25" fill="none" xmlns="http://www.w3.org/2000/svg">
<g clip-path="url(#clip0_335_2190)">
<path d="M12.4565 25.0084L11.7304 24.386C10.7293 23.5479 1.98877 15.9992 1.98877 10.4775C1.98877 4.69634 6.67534 0.00976562 12.4565 0.00976562C18.2376 0.00976562 22.9242 4.69634 22.9242 10.4775C22.9242 15.9992 14.1836 23.5479 13.1868 24.3902L12.4565 25.0084ZM12.4565 2.27319C7.92754 2.27832 4.25737 5.94849 4.25225 10.4774C4.25225 13.9463 9.62979 19.4877 12.4565 22.024C15.2833 19.4867 20.6607 13.9421 20.6607 10.4774C20.6556 5.94849 16.9855 2.27837 12.4565 2.27319Z" fill="#495E57"/>
<path d="M12.4564 14.6268C10.1648 14.6268 8.30713 12.769 8.30713 10.4774C8.30713 8.18584 10.1648 6.32812 12.4564 6.32812C14.748 6.32812 16.6058 8.18584 16.6058 10.4774C16.6058 12.769 14.7481 14.6268 12.4564 14.6268ZM12.4564 8.40273C11.3106 8.40273 10.3818 9.33159 10.3818 10.4774C10.3818 11.6232 11.3106 12.5521 12.4564 12.5521C13.6022 12.5521 14.5311 11.6232 14.5311 10.4774C14.5311 9.33159 13.6023 8.40273 12.4564 8.40273Z" fill="#495E57"/>
</g>
<defs>
<clipPath id="clip0_335_2190">
<rect width="25" height="25" fill="white"/>
</clipPath>
</defs>
</svg>
