<svg width="200" height="200" viewBox="0 0 200 200" fill="none" xmlns="http://www.w3.org/2000/svg">
<mask id="mask0_13_9" style="mask-type:luminance" maskUnits="userSpaceOnUse" x="0" y="0" width="200" height="200">
<path d="M0.790222 78.3097C0.790222 35.4968 35.4968 0.790283 78.3096 0.790283H121.72C164.533 0.790283 199.24 35.4968 199.24 78.3097V121.721C199.24 164.533 164.533 199.24 121.72 199.24H78.3096C35.4968 199.24 0.790222 164.533 0.790222 121.721V78.3097Z" fill="white"/>
</mask>
<g mask="url(#mask0_13_9)">
<path d="M0.790222 78.3097C0.790222 35.4968 35.4968 0.790283 78.3096 0.790283H121.72C164.533 0.790283 199.24 35.4968 199.24 78.3097V121.721C199.24 164.533 164.533 199.24 121.72 199.24H78.3096C35.4968 199.24 0.790222 164.533 0.790222 121.721V78.3097Z" fill="#353933"/>
<path d="M122.481 1.55054H79.0698C36.257 1.55054 1.55042 36.2571 1.55042 79.0699V122.481C1.55042 165.294 36.257 200 79.0698 200H122.481C165.293 200 200 165.294 200 122.481V79.0699C200 36.2571 165.293 1.55054 122.481 1.55054Z" fill="#353933"/>
<path d="M1.55042 79.0699C1.55042 36.2572 36.2571 1.55054 79.0698 1.55054H200V122.481C200 165.293 165.293 200 122.481 200H79.0698C36.2571 200 1.55042 165.293 1.55042 122.481V79.0699Z" fill="#353933"/>
<g filter="url(#filter0_i_13_9)">
<path d="M141.937 151.24C119.232 173.944 82.4205 173.944 59.7156 151.24C37.0107 128.535 37.0107 91.7228 59.7156 69.0179C82.4205 46.3131 119.232 46.3131 141.937 69.0179C164.642 91.7228 164.642 128.535 141.937 151.24Z" fill="white"/>
</g>
<g filter="url(#filter1_d_13_9)">
<path d="M97.3098 86.0354L99.2383 82.8914L101.11 85.1498C102.376 101.472 104.065 134.313 100.688 135.1C97.31 135.887 97.0284 102.718 97.3098 86.0354Z" fill="#6C9F52" stroke="#6C9F52"/>
<path d="M54.7086 40.1082C58.8344 55.1951 49.8273 81.0694 96.9954 87.3863C117.428 76.2202 77.3179 51.215 54.7086 40.1082Z" fill="#6C9F52" stroke="#6C9F52"/>
<path d="M164.057 54.776C147.248 54.4519 126.791 38.7753 96.0964 81.3625C96.3107 103.684 141.493 72.9388 164.057 54.776Z" fill="#6C9F52" stroke="#6C9F52"/>
</g>
<g filter="url(#filter2_i_13_9)">
<path d="M35.659 49.6126C42.509 49.6126 48.0621 44.0595 48.0621 37.2095C48.0621 30.3595 42.509 24.8064 35.659 24.8064C28.8089 24.8064 23.2559 30.3595 23.2559 37.2095C23.2559 44.0595 28.8089 49.6126 35.659 49.6126Z" fill="white"/>
</g>
<path d="M100.775 204.651C143.588 204.651 178.295 187.298 178.295 165.892C178.295 144.485 143.588 127.132 100.775 127.132C57.9625 127.132 23.2559 144.485 23.2559 165.892C23.2559 187.298 57.9625 204.651 100.775 204.651Z" fill="#353933"/>
<g filter="url(#filter3_i_13_9)">
<path d="M62.4745 158.605C62.4745 159.267 62.3194 159.871 62.0093 160.419C61.7097 160.957 61.2497 161.391 60.6295 161.721C60.0197 162.042 59.2703 162.202 58.3814 162.202H56.8776V165.892H53.8388V154.961H58.3814C59.26 154.961 60.0042 155.116 60.614 155.426C61.2342 155.737 61.6993 156.166 62.0093 156.713C62.3194 157.261 62.4745 157.892 62.4745 158.605ZM58.0869 159.783C58.9447 159.783 59.3737 159.391 59.3737 158.605C59.3737 157.809 58.9447 157.411 58.0869 157.411H56.8776V159.783H58.0869ZM70.7805 165.892L68.61 161.861H68.2844V165.892H65.2456V154.961H70.0363C70.9149 154.961 71.6591 155.116 72.2689 155.426C72.8788 155.726 73.3386 156.144 73.6487 156.682C73.9588 157.209 74.1138 157.803 74.1138 158.465C74.1138 159.209 73.9072 159.865 73.4937 160.434C73.0906 160.992 72.4963 161.391 71.7107 161.628L74.1759 165.892H70.7805ZM68.2844 159.783H69.7883C70.2018 159.783 70.5118 159.685 70.7185 159.488C70.9253 159.292 71.0286 159.008 71.0286 158.636C71.0286 158.284 70.92 158.011 70.703 157.814C70.4963 157.608 70.1914 157.504 69.7883 157.504H68.2844V159.783ZM80.085 157.395V159.178H83.5734V161.488H80.085V163.457H84.0385V165.892H77.0462V154.961H84.0385V157.395H80.085ZM86.7183 160.403C86.7183 159.329 86.9405 158.372 87.385 157.535C87.8397 156.687 88.4805 156.031 89.3075 155.566C90.1343 155.09 91.0852 154.853 92.1602 154.853C93.5245 154.853 94.6718 155.22 95.6021 155.954C96.5323 156.678 97.1317 157.664 97.4005 158.915H94.1292C93.9328 158.501 93.6588 158.186 93.3075 157.969C92.9664 157.752 92.5684 157.643 92.1137 157.643C91.4107 157.643 90.8475 157.896 90.4238 158.403C90.0103 158.899 89.8036 159.566 89.8036 160.403C89.8036 161.251 90.0103 161.927 90.4238 162.434C90.8475 162.93 91.4107 163.178 92.1137 163.178C92.5684 163.178 92.9664 163.07 93.3075 162.853C93.6588 162.636 93.9328 162.321 94.1292 161.907H97.4005C97.1317 163.158 96.5323 164.15 95.6021 164.884C94.6718 165.608 93.5245 165.969 92.1602 165.969C91.0852 165.969 90.1343 165.737 89.3075 165.271C88.4805 164.795 87.8397 164.14 87.385 163.302C86.9405 162.454 86.7183 161.488 86.7183 160.403ZM105.63 166C104.607 166 103.666 165.763 102.808 165.287C101.951 164.802 101.268 164.135 100.762 163.287C100.266 162.43 100.018 161.462 100.018 160.388C100.018 159.313 100.266 158.352 100.762 157.504C101.268 156.647 101.951 155.98 102.808 155.504C103.666 155.028 104.607 154.791 105.63 154.791C106.664 154.791 107.604 155.028 108.452 155.504C109.31 155.98 109.987 156.647 110.483 157.504C110.979 158.352 111.227 159.313 111.227 160.388C111.227 161.462 110.979 162.43 110.483 163.287C109.987 164.135 109.31 164.802 108.452 165.287C107.594 165.763 106.653 166 105.63 166ZM105.63 163.178C106.405 163.178 107.015 162.926 107.46 162.419C107.914 161.912 108.142 161.236 108.142 160.388C108.142 159.519 107.914 158.837 107.46 158.341C107.015 157.834 106.405 157.581 105.63 157.581C104.845 157.581 104.23 157.834 103.785 158.341C103.341 158.837 103.118 159.519 103.118 160.388C103.118 161.245 103.341 161.927 103.785 162.434C104.23 162.93 104.845 163.178 105.63 163.178ZM124.267 165.892H121.229L117.182 159.783V165.892H114.143V154.961H117.182L121.229 161.147V154.961H124.267V165.892ZM130.588 157.395V159.178H134.076V161.488H130.588V163.457H134.541V165.892H127.549V154.961H134.541V157.395H130.588ZM147.717 165.892H144.678L140.632 159.783V165.892H137.593V154.961H140.632L144.678 161.147V154.961H147.717V165.892Z" fill="white"/>
</g>
</g>
<defs>
<filter id="filter0_i_13_9" x="42.687" y="51.9893" width="116.279" height="120.279" filterUnits="userSpaceOnUse" color-interpolation-filters="sRGB">
<feFlood flood-opacity="0" result="BackgroundImageFix"/>
<feBlend mode="normal" in="SourceGraphic" in2="BackgroundImageFix" result="shape"/>
<feColorMatrix in="SourceAlpha" type="matrix" values="0 0 0 0 0 0 0 0 0 0 0 0 0 0 0 0 0 0 127 0" result="hardAlpha"/>
<feOffset dy="4"/>
<feGaussianBlur stdDeviation="2"/>
<feComposite in2="hardAlpha" operator="arithmetic" k2="-1" k3="1"/>
<feColorMatrix type="matrix" values="0 0 0 0 0 0 0 0 0 0 0 0 0 0 0 0 0 0 0.25 0"/>
<feBlend mode="normal" in2="shape" result="effect1_innerShadow_13_9"/>
</filter>
<filter id="filter1_d_13_9" x="49.9338" y="39.1704" width="119.509" height="104.444" filterUnits="userSpaceOnUse" color-interpolation-filters="sRGB">
<feFlood flood-opacity="0" result="BackgroundImageFix"/>
<feColorMatrix in="SourceAlpha" type="matrix" values="0 0 0 0 0 0 0 0 0 0 0 0 0 0 0 0 0 0 127 0" result="hardAlpha"/>
<feOffset dy="4"/>
<feGaussianBlur stdDeviation="2"/>
<feComposite in2="hardAlpha" operator="out"/>
<feColorMatrix type="matrix" values="0 0 0 0 0 0 0 0 0 0 0 0 0 0 0 0 0 0 0.25 0"/>
<feBlend mode="normal" in2="BackgroundImageFix" result="effect1_dropShadow_13_9"/>
<feBlend mode="normal" in="SourceGraphic" in2="effect1_dropShadow_13_9" result="shape"/>
</filter>
<filter id="filter2_i_13_9" x="23.2559" y="24.8064" width="24.8062" height="28.8062" filterUnits="userSpaceOnUse" color-interpolation-filters="sRGB">
<feFlood flood-opacity="0" result="BackgroundImageFix"/>
<feBlend mode="normal" in="SourceGraphic" in2="BackgroundImageFix" result="shape"/>
<feColorMatrix in="SourceAlpha" type="matrix" values="0 0 0 0 0 0 0 0 0 0 0 0 0 0 0 0 0 0 127 0" result="hardAlpha"/>
<feOffset dy="4"/>
<feGaussianBlur stdDeviation="2"/>
<feComposite in2="hardAlpha" operator="arithmetic" k2="-1" k3="1"/>
<feColorMatrix type="matrix" values="0 0 0 0 0 0 0 0 0 0 0 0 0 0 0 0 0 0 0.25 0"/>
<feBlend mode="normal" in2="shape" result="effect1_innerShadow_13_9"/>
</filter>
<filter id="filter3_i_13_9" x="53.8388" y="154.791" width="93.8783" height="15.2092" filterUnits="userSpaceOnUse" color-interpolation-filters="sRGB">
<feFlood flood-opacity="0" result="BackgroundImageFix"/>
<feBlend mode="normal" in="SourceGraphic" in2="BackgroundImageFix" result="shape"/>
<feColorMatrix in="SourceAlpha" type="matrix" values="0 0 0 0 0 0 0 0 0 0 0 0 0 0 0 0 0 0 127 0" result="hardAlpha"/>
<feOffset dy="4"/>
<feGaussianBlur stdDeviation="2"/>
<feComposite in2="hardAlpha" operator="arithmetic" k2="-1" k3="1"/>
<feColorMatrix type="matrix" values="0 0 0 0 0 0 0 0 0 0 0 0 0 0 0 0 0 0 0.25 0"/>
<feBlend mode="normal" in2="shape" result="effect1_innerShadow_13_9"/>
</filter>
</defs>
</svg>
